<svg width="0" height="0" class="hidden">
  <symbol xmlns="http://www.w3.org/2000/svg" viewBox="0 0 26 26" id="notification">
    <path d="M12.8908 0.102539C10.0507 0.102539 7.32688 1.08971 5.31861 2.8469C3.31034 4.60408 2.18211 6.98733 2.18211 9.47236V15.0724L0.920266 16.1765C0.670737 16.3949 0.500814 16.6731 0.431979 16.976C0.363144 17.2789 0.398489 17.5928 0.533543 17.8781C0.668598 18.1634 0.897299 18.4073 1.19073 18.5789C1.48417 18.7505 1.82917 18.8421 2.18211 18.8422H23.5995C23.9524 18.8421 24.2974 18.7505 24.5909 18.5789C24.8843 18.4073 25.113 18.1634 25.2481 17.8781C25.3831 17.5928 25.4185 17.2789 25.3496 16.976C25.2808 16.6731 25.1109 16.3949 24.8613 16.1765L23.5995 15.0724V9.47236C23.5995 6.98733 22.4713 4.60408 20.463 2.8469C18.4547 1.08971 15.7309 0.102539 12.8908 0.102539ZM12.8908 25.0887C11.4707 25.0887 10.1088 24.5952 9.10471 23.7166C8.10057 22.838 7.53646 21.6463 7.53646 20.4038H18.2452C18.2452 21.6463 17.681 22.838 16.6769 23.7166C15.6728 24.5952 14.3109 25.0887 12.8908 25.0887Z"></path>
  </symbol>
  <symbol fill="none" xmlns="http://www.w3.org/2000/svg" viewBox="0 0 26 26" id="settings">
    <g clip-path="url(#clip0_1562_542)">
      <path d="M12.8904 15.7192C14.6153 15.7192 16.0136 14.3209 16.0136 12.5959C16.0136 10.871 14.6153 9.47266 12.8904 9.47266C11.1654 9.47266 9.76709 10.871 9.76709 12.5959C9.76709 14.3209 11.1654 15.7192 12.8904 15.7192Z"  stroke-width="2.08218" stroke-linecap="round" stroke-linejoin="round"></path>
      <path d="M20.5946 15.7208C20.456 16.0348 20.4146 16.3831 20.4759 16.7209C20.5371 17.0586 20.6981 17.3702 20.9381 17.6156L21.0006 17.678C21.1942 17.8714 21.3478 18.1011 21.4525 18.3538C21.5573 18.6066 21.6113 18.8776 21.6113 19.1512C21.6113 19.4248 21.5573 19.6958 21.4525 19.9485C21.3478 20.2013 21.1942 20.431 21.0006 20.6243C20.8072 20.8179 20.5776 20.9715 20.3248 21.0763C20.072 21.1811 19.8011 21.235 19.5274 21.235C19.2538 21.235 18.9829 21.1811 18.7301 21.0763C18.4773 20.9715 18.2477 20.8179 18.0543 20.6243L17.9918 20.5619C17.7465 20.3219 17.4348 20.1609 17.0971 20.0996C16.7594 20.0384 16.4111 20.0797 16.097 20.2183C15.7891 20.3503 15.5265 20.5694 15.3415 20.8487C15.1566 21.128 15.0573 21.4553 15.056 21.7904V21.9673C15.056 22.5196 14.8366 23.0492 14.4461 23.4397C14.0556 23.8302 13.526 24.0495 12.9738 24.0495C12.4215 24.0495 11.8919 23.8302 11.5014 23.4397C11.111 23.0492 10.8916 22.5196 10.8916 21.9673V21.8736C10.8835 21.529 10.772 21.1948 10.5715 20.9145C10.3709 20.6341 10.0907 20.4206 9.76721 20.3016C9.4532 20.163 9.10488 20.1217 8.76715 20.1829C8.42943 20.2441 8.11779 20.4051 7.87242 20.6452L7.80996 20.7076C7.61658 20.9012 7.38694 21.0548 7.13417 21.1596C6.88139 21.2644 6.61044 21.3183 6.33681 21.3183C6.06318 21.3183 5.79223 21.2644 5.53946 21.1596C5.28669 21.0548 5.05705 20.9012 4.86367 20.7076C4.67007 20.5142 4.51649 20.2846 4.41171 20.0318C4.30693 19.7791 4.25299 19.5081 4.25299 19.2345C4.25299 18.9608 4.30693 18.6899 4.41171 18.4371C4.51649 18.1844 4.67007 17.9547 4.86367 17.7613L4.92613 17.6989C5.16614 17.4535 5.32715 17.1419 5.38838 16.8041C5.44962 16.4664 5.40828 16.1181 5.26969 15.8041C5.13772 15.4962 4.91859 15.2335 4.63928 15.0486C4.35996 14.8636 4.03266 14.7643 3.69765 14.763H3.52066C2.96843 14.763 2.43882 14.5436 2.04833 14.1531C1.65785 13.7626 1.43848 13.233 1.43848 12.6808C1.43848 12.1286 1.65785 11.599 2.04833 11.2085C2.43882 10.818 2.96843 10.5986 3.52066 10.5986H3.61436C3.95895 10.5906 4.29316 10.479 4.57352 10.2785C4.85388 10.078 5.06743 9.79775 5.18641 9.47424C5.32499 9.16023 5.36633 8.81191 5.3051 8.47418C5.24386 8.13646 5.08286 7.82482 4.84285 7.57945L4.78038 7.51699C4.58679 7.32361 4.43321 7.09397 4.32842 6.8412C4.22364 6.58842 4.1697 6.31748 4.1697 6.04384C4.1697 5.77021 4.22364 5.49927 4.32842 5.24649C4.43321 4.99372 4.58679 4.76408 4.78038 4.5707C4.97376 4.37711 5.2034 4.22353 5.45617 4.11874C5.70895 4.01396 5.97989 3.96002 6.25353 3.96002C6.52716 3.96002 6.79811 4.01396 7.05088 4.11874C7.30365 4.22353 7.53329 4.37711 7.72667 4.5707L7.78914 4.63317C8.0345 4.87318 8.34614 5.03418 8.68386 5.09541C9.02159 5.15665 9.36991 5.11531 9.68392 4.97673H9.76721C10.0751 4.84475 10.3377 4.62562 10.5227 4.34631C10.7077 4.06699 10.807 3.73969 10.8083 3.40468V3.22769C10.8083 2.67546 11.0277 2.14585 11.4182 1.75537C11.8086 1.36488 12.3383 1.14551 12.8905 1.14551C13.4427 1.14551 13.9723 1.36488 14.3628 1.75537C14.7533 2.14585 14.9727 2.67546 14.9727 3.22769V3.32139C14.974 3.6564 15.0733 3.98371 15.2582 4.26302C15.4432 4.54234 15.7058 4.76147 16.0138 4.89344C16.3278 5.03202 16.6761 5.07336 17.0138 5.01213C17.3515 4.95089 17.6632 4.78989 17.9085 4.54988L17.971 4.48741C18.1644 4.29382 18.394 4.14024 18.6468 4.03545C18.8996 3.93067 19.1705 3.87674 19.4442 3.87674C19.7178 3.87674 19.9887 3.93067 20.2415 4.03545C20.4943 4.14024 20.7239 4.29382 20.9173 4.48741C21.1109 4.68079 21.2645 4.91043 21.3693 5.16321C21.474 5.41598 21.528 5.68693 21.528 5.96056C21.528 6.23419 21.474 6.50514 21.3693 6.75791C21.2645 7.01068 21.1109 7.24032 20.9173 7.4337L20.8548 7.49617C20.6148 7.74153 20.4538 8.05317 20.3926 8.39089C20.3314 8.72862 20.3727 9.07694 20.5113 9.39095V9.47424C20.6432 9.78217 20.8624 10.0448 21.1417 10.2298C21.421 10.4147 21.7483 10.514 22.0833 10.5153H22.2603C22.8125 10.5153 23.3422 10.7347 23.7326 11.1252C24.1231 11.5157 24.3425 12.0453 24.3425 12.5975C24.3425 13.1497 24.1231 13.6794 23.7326 14.0698C23.3422 14.4603 22.8125 14.6797 22.2603 14.6797H22.1666C21.8316 14.681 21.5043 14.7803 21.225 14.9653C20.9457 15.1503 20.7265 15.4129 20.5946 15.7208Z"  stroke-width="2.08218" stroke-linecap="round" stroke-linejoin="round"></path>
    </g>
    <defs>
      <clipPath id="clip0_1562_542">
        <rect width="24.9862" height="24.9862" fill="white" transform="translate(0.398438 0.102539)"></rect>
      </clipPath>
    </defs>
  </symbol>
  <symbol fill="none" xmlns="http://www.w3.org/2000/svg" viewBox="0 0 24 25" id="chevron-down">
    <path d="M6 9.5L12 15.5L18 9.5" stroke-width="2" stroke-linecap="round" stroke-linejoin="round"></path>
  </symbol>
  <symbol fill="none" xmlns="http://www.w3.org/2000/svg" viewBox="0 0 25 25" id="eye-off">
    <g clip-path="url(#clip0_1562_579)">
      <path d="M18.874 18.857C17.168 20.1575 15.0905 20.8779 12.9457 20.913C5.95938 20.913 1.96722 12.9287 1.96722 12.9287C3.20868 10.6151 4.93054 8.5938 7.0173 7.00032M10.8498 5.18389C11.5368 5.02309 12.2401 4.9427 12.9457 4.94436C19.9319 4.94436 23.9241 12.9287 23.9241 12.9287C23.3183 14.0621 22.5958 15.1291 21.7683 16.1124M15.0615 15.0445C14.7874 15.3387 14.4568 15.5746 14.0896 15.7383C13.7223 15.9019 13.3258 15.9899 12.9238 15.997C12.5218 16.0041 12.1224 15.9302 11.7496 15.7796C11.3768 15.629 11.0381 15.4048 10.7538 15.1205C10.4695 14.8362 10.2454 14.4975 10.0948 14.1247C9.94418 13.7519 9.87022 13.3526 9.87732 12.9505C9.88441 12.5485 9.97241 12.152 10.1361 11.7848C10.2997 11.4175 10.5356 11.0869 10.8298 10.8128" stroke-width="1.99608" stroke-linecap="round" stroke-linejoin="round"></path>
      <path d="M1.96722 1.9502L23.9241 23.9071" stroke-width="1.99608" stroke-linecap="round" stroke-linejoin="round"></path>
    </g>
    <defs>
      <clipPath id="clip0_1562_579">
        <rect width="23.9529" height="23.9529" fill="white" transform="translate(0.968536 0.951172)"></rect>
      </clipPath>
    </defs>
  </symbol>
  <symbol xmlns="http://www.w3.org/2000/svg" viewBox="0 0 28 25" id="calendar">
    <path d="M21.6313 4.91211H6.18223C4.96333 4.91211 3.97522 5.80754 3.97522 6.91211V20.9121C3.97522 22.0167 4.96333 22.9121 6.18223 22.9121H21.6313C22.8502 22.9121 23.8383 22.0167 23.8383 20.9121V6.91211C23.8383 5.80754 22.8502 4.91211 21.6313 4.91211Z"  stroke-width="2" stroke-linecap="round" stroke-linejoin="round"></path>
    <path d="M18.3208 2.91211V6.91211"  stroke-width="2" stroke-linecap="round" stroke-linejoin="round"></path>
    <path d="M9.49274 2.91211V6.91211"  stroke-width="2" stroke-linecap="round" stroke-linejoin="round"></path>
    <path d="M3.97522 10.9121H23.8383"  stroke-width="2" stroke-linecap="round" stroke-linejoin="round"></path>
  </symbol>
  <symbol fill="none" xmlns="http://www.w3.org/2000/svg" viewBox="0 0 18 17" id="wrong">
    <g clip-path="url(#clip0_1558_610)">
      <path d="M9.02753 15.2694C12.8607 15.2694 15.9681 12.162 15.9681 8.3288C15.9681 4.4956 12.8607 1.38818 9.02753 1.38818C5.19433 1.38818 2.08691 4.4956 2.08691 8.3288C2.08691 12.162 5.19433 15.2694 9.02753 15.2694Z"  stroke-width="2.08218" stroke-linecap="round" stroke-linejoin="round"></path>
      <path d="M11.1094 6.24658L6.94507 10.4109"  stroke-width="2.08218" stroke-linecap="round" stroke-linejoin="round"></path>
      <path d="M6.94507 6.24658L11.1094 10.4109"  stroke-width="2.08218" stroke-linecap="round" stroke-linejoin="round"></path>
    </g>
    <defs>
      <clipPath id="clip0_1558_610">
        <rect width="16.6575" height="16.6575" fill="white" transform="translate(0.69873)"></rect>
      </clipPath>
    </defs>
  </symbol>
  <symbol fill="none" xmlns="http://www.w3.org/2000/svg" viewBox="0 0 18 17" id="check-circle">
    <g clip-path="url(#clip0_1558_605)">
      <path d="M15.7626 7.69033V8.32886C15.7617 9.82555 15.2771 11.2819 14.3809 12.4806C13.4848 13.6794 12.2251 14.5563 10.7899 14.9807C9.3546 15.405 7.82061 15.3541 6.41667 14.8354C5.01273 14.3167 3.81407 13.3581 2.99945 12.1025C2.18484 10.8469 1.79792 9.36167 1.89639 7.86822C1.99487 6.37478 2.57347 4.95317 3.5459 3.81543C4.51833 2.67769 5.83249 1.88477 7.29238 1.55493C8.75227 1.22508 10.2797 1.37599 11.6468 1.98514" stroke-width="2.08218" stroke-linecap="round" stroke-linejoin="round"></path>
      <path d="M15.7625 2.77637L8.82193 9.72392L6.73975 7.64174"  stroke-width="2.08218" stroke-linecap="round" stroke-linejoin="round"></path>
    </g>
    <defs>
      <clipPath id="clip0_1558_605">
        <rect width="16.6575" height="16.6575" fill="white" transform="translate(0.493164)"></rect>
      </clipPath>
    </defs>
  </symbol>
  <symbol fill="none" xmlns="http://www.w3.org/2000/svg" viewBox="0 0 24 24" id="globe">
    <path d="M12 22.0002C17.5228 22.0002 22 17.5231 22 12.0002C22 6.4774 17.5228 2.00024 12 2.00024C6.47715 2.00024 2 6.4774 2 12.0002C2 17.5231 6.47715 22.0002 12 22.0002Z"  stroke-width="0.754902" stroke-linecap="round" stroke-linejoin="round"></path>
    <path d="M2 12.0005H22" stroke-width="0.754902" stroke-linecap="round" stroke-linejoin="round"></path>
    <path d="M11.9995 2.00024C14.5008 4.7386 15.9223 8.29228 15.9995 12.0002C15.9223 15.7082 14.5008 19.2619 11.9995 22.0002C9.49823 19.2619 8.07676 15.7082 7.99951 12.0002C8.07676 8.29228 9.49823 4.7386 11.9995 2.00024Z"  stroke-width="0.754902" stroke-linecap="round" stroke-linejoin="round"></path>
  </symbol>
  <symbol xmlns="http://www.w3.org/2000/svg" viewBox="0 0 27 23" id="phone">
    <path d="M25.6736 16.59V19.5641C25.6749 19.8402 25.6061 20.1135 25.4715 20.3664C25.3368 20.6194 25.1394 20.8465 24.8917 21.0332C24.6441 21.2198 24.3517 21.3619 24.0333 21.4504C23.715 21.5388 23.3776 21.5717 23.0429 21.5468C19.3297 21.2153 15.7628 20.1729 12.629 18.5033C9.71337 16.9813 7.24143 14.9505 5.38872 12.5552C3.34935 9.96889 2.08021 7.02433 1.68411 3.96003C1.65396 3.68589 1.69361 3.40959 1.80056 3.14873C1.9075 2.88786 2.0794 2.64815 2.30529 2.44486C2.53118 2.24156 2.80612 2.07913 3.11261 1.96791C3.4191 1.85669 3.75042 1.79912 4.08547 1.79886H7.70561C8.29124 1.79413 8.85898 1.9645 9.30301 2.27822C9.74705 2.59194 10.0371 3.0276 10.119 3.50401C10.2718 4.45578 10.5552 5.3903 10.9637 6.28974C11.1261 6.64457 11.1612 7.0302 11.065 7.40094C10.9687 7.77167 10.7452 8.11197 10.4207 8.38152L8.88819 9.64055C10.606 12.1225 13.1074 14.1775 16.1285 15.5887L17.661 14.3297C17.9891 14.0632 18.4033 13.8795 18.8546 13.8004C19.3058 13.7213 19.7752 13.7502 20.2072 13.8836C21.302 14.2192 22.4395 14.452 23.598 14.5775C24.1842 14.6455 24.7195 14.888 25.1022 15.2591C25.4849 15.6301 25.6883 16.1038 25.6736 16.59Z"  stroke-width="2" stroke-linecap="round" stroke-linejoin="round"></path>
  </symbol>
  <symbol fill="none" xmlns="http://www.w3.org/2000/svg" viewBox="0 0 24 20" id="mail">
    <path d="M4 3.53683H20C21.1 3.53683 22 4.27769 22 5.18318V15.0612C22 15.9667 21.1 16.7076 20 16.7076H4C2.9 16.7076 2 15.9667 2 15.0612V5.18318C2 4.27769 2.9 3.53683 4 3.53683Z"  stroke-width="2" stroke-linecap="round" stroke-linejoin="round"></path>
    <path d="M22 5.18317L12 10.9454L2 5.18317"  stroke-width="2" stroke-linecap="round" stroke-linejoin="round"></path>
  </symbol>
  <symbol fill="none" xmlns="http://www.w3.org/2000/svg" viewBox="0 0 5 18" id="threeDots">
    <path d="M2.02988 2.2929V2.30268M2.02988 9.13857V9.14835M2.02988 15.9843V15.994M2.02988 3.27085C1.77266 3.27085 1.52599 3.16781 1.34411 2.98441C1.16224 2.80101 1.06006 2.55226 1.06006 2.2929C1.06006 2.03353 1.16224 1.78478 1.34411 1.60138C1.52599 1.41798 1.77266 1.31494 2.02988 1.31494C2.28709 1.31494 2.53376 1.41798 2.71564 1.60138C2.89751 1.78478 2.99969 2.03353 2.99969 2.2929C2.99969 2.55226 2.89751 2.80101 2.71564 2.98441C2.53376 3.16781 2.28709 3.27085 2.02988 3.27085ZM2.02988 10.1165C1.77266 10.1165 1.52599 10.0135 1.34411 9.83009C1.16224 9.64669 1.06006 9.39794 1.06006 9.13857C1.06006 8.8792 1.16224 8.63046 1.34411 8.44706C1.52599 8.26365 1.77266 8.16062 2.02988 8.16062C2.28709 8.16062 2.53376 8.26365 2.71564 8.44706C2.89751 8.63046 2.99969 8.8792 2.99969 9.13857C2.99969 9.39794 2.89751 9.64669 2.71564 9.83009C2.53376 10.0135 2.28709 10.1165 2.02988 10.1165ZM2.02988 16.9622C1.77266 16.9622 1.52599 16.8592 1.34411 16.6758C1.16224 16.4924 1.06006 16.2436 1.06006 15.9843C1.06006 15.7249 1.16224 15.4761 1.34411 15.2927C1.52599 15.1093 1.77266 15.0063 2.02988 15.0063C2.28709 15.0063 2.53376 15.1093 2.71564 15.2927C2.89751 15.4761 2.99969 15.7249 2.99969 15.9843C2.99969 16.2436 2.89751 16.4924 2.71564 16.6758C2.53376 16.8592 2.28709 16.9622 2.02988 16.9622Z"  stroke-width="2.08218" stroke-linecap="round" stroke-linejoin="round"></path>
  </symbol>
  <symbol fill="none" xmlns="http://www.w3.org/2000/svg" viewBox="0 0 24 24" id="trash">
    <path d="M3 6H5H21"  stroke-width="2" stroke-linecap="round" stroke-linejoin="round"></path>
    <path d="M19 6V20C19 20.5304 18.7893 21.0391 18.4142 21.4142C18.0391 21.7893 17.5304 22 17 22H7C6.46957 22 5.96086 21.7893 5.58579 21.4142C5.21071 21.0391 5 20.5304 5 20V6M8 6V4C8 3.46957 8.21071 2.96086 8.58579 2.58579C8.96086 2.21071 9.46957 2 10 2H14C14.5304 2 15.0391 2.21071 15.4142 2.58579C15.7893 2.96086 16 3.46957 16 4V6"  stroke-width="2" stroke-linecap="round" stroke-linejoin="round"></path>
    <path d="M10 11V17"  stroke-width="2" stroke-linecap="round" stroke-linejoin="round"></path>
    <path d="M14 11V17"  stroke-width="2" stroke-linecap="round" stroke-linejoin="round"></path>
  </symbol>
  <symbol fill="none" xmlns="http://www.w3.org/2000/svg" viewBox="0 0 24 24" id="download-cloud">
    <g clip-path="url(#clip0_1705_3345)">
      <path d="M8 17L12 21L16 17"  stroke-width="2" stroke-linecap="round" stroke-linejoin="round"></path>
      <path d="M12 12V21"  stroke-width="2" stroke-linecap="round" stroke-linejoin="round"></path>
      <path d="M20.8802 18.09C21.7496 17.4786 22.4015 16.6061 22.7415 15.5991C23.0814 14.5921 23.0916 13.503 22.7706 12.4898C22.4496 11.4766 21.814 10.5921 20.9562 9.96456C20.0985 9.33703 19.063 8.99916 18.0002 8.99999H16.7402C16.4394 7.82787 15.8767 6.73924 15.0943 5.81607C14.3119 4.89291 13.3303 4.15925 12.2234 3.67035C11.1164 3.18144 9.91302 2.95002 8.7037 2.99351C7.49439 3.037 6.31069 3.35426 5.24173 3.92142C4.17277 4.48858 3.2464 5.29084 2.53236 6.26782C1.81833 7.2448 1.33523 8.37104 1.11944 9.56174C0.903647 10.7524 0.960787 11.9766 1.28656 13.142C1.61233 14.3074 2.19824 15.3838 3.00018 16.29"  stroke-width="2" stroke-linecap="round" stroke-linejoin="round"></path>
    </g>
    <defs>
      <clipPath id="clip0_1705_3345">
        <rect width="24" height="24" fill="white"></rect>
      </clipPath>
    </defs>
  </symbol>
  <symbol xmlns="http://www.w3.org/2000/svg" viewBox="0 0 47 48" id="djokwa">
    <path d="M7.8335 41.5632V27.8549"  stroke-width="3.91667" stroke-linecap="round" stroke-linejoin="round"></path>
    <path d="M7.8335 20.0215V6.3132"  stroke-width="3.91667" stroke-linecap="round" stroke-linejoin="round"></path>
    <path d="M23.5 41.5632V23.9382"  stroke-width="3.91667" stroke-linecap="round" stroke-linejoin="round"></path>
    <path d="M23.5 16.1049V6.3132"  stroke-width="3.91667" stroke-linecap="round" stroke-linejoin="round"></path>
    <path d="M39.1665 41.5632V31.7715"  stroke-width="3.91667" stroke-linecap="round" stroke-linejoin="round"></path>
    <path d="M39.1665 23.9382V6.3132"  stroke-width="3.91667" stroke-linecap="round" stroke-linejoin="round"></path>
    <path d="M1.9585 27.8549H13.7085"  stroke-width="3.91667" stroke-linecap="round" stroke-linejoin="round"></path>
    <path d="M17.625 16.1049H29.375"  stroke-width="3.91667" stroke-linecap="round" stroke-linejoin="round"></path>
    <path d="M33.2915 31.7715H45.0415"  stroke-width="3.91667" stroke-linecap="round" stroke-linejoin="round"></path>
  </symbol>
  <symbol  xmlns="http://www.w3.org/2000/svg" viewBox="0 0 32 29" id="audience">
    <path d="M20.9381 20.8945V19.814C20.9381 18.5534 19.9305 17.8387 19.0198 17.4563C18.8859 17.4 18.7514 17.3475 18.6162 17.299C18.9421 16.8459 19.1157 16.3111 19.1157 15.7224C19.1157 14.9212 18.7953 14.2189 18.2084 13.6837C17.6247 13.1503 16.9051 12.8967 16.1259 12.8967C15.3495 12.8967 14.6308 13.1461 14.0451 13.6728C13.4515 14.2055 13.1258 14.9092 13.1258 15.7145C13.1258 16.3087 13.302 16.8485 13.6321 17.3063C13.515 17.3502 13.3987 17.3973 13.2833 17.4477L20.9381 20.8945ZM20.9381 20.8945C21.0204 20.8304 21.0876 20.7681 21.1417 20.7085L21.1444 20.7055C21.4698 20.3494 21.5154 20.124 21.5154 20.0123V14.7279C21.5154 14.4163 21.3452 13.8951 19.9622 13.3827C18.5129 12.8456 17.2365 12.597 16.1208 12.597C15.0038 12.597 13.7275 12.8457 12.2795 13.3826C10.8991 13.8945 10.7267 14.4155 10.7261 14.7286C10.7261 14.7288 10.7261 14.729 10.7261 14.7292L10.7261 20.0123C10.7261 20.2582 10.8943 20.7954 12.3262 21.4217L20.9381 20.8945ZM11.1586 20.3747L11.3257 19.5317C11.5362 18.4705 12.399 17.8322 13.2827 17.4479L11.1586 20.3747ZM11.1586 20.3747L11.9128 20.7868M11.1586 20.3747L11.9128 20.7868M11.9128 20.7868C12.6192 21.1729 13.3981 21.4488 14.2397 21.6235C14.7072 21.7213 15.1873 21.7836 15.6792 21.8116V22.1563M11.9128 20.7868L15.6792 22.1563M15.6792 22.1563C14.4803 22.1234 13.366 21.8758 12.3262 21.4218L15.6792 22.1563ZM14.8368 8.47029L14.8359 8.46949C14.5078 8.17243 14.3743 7.85951 14.3743 7.46408C14.3743 7.06791 14.5084 6.75279 14.8364 6.45507C15.1691 6.15408 15.5726 5.99195 16.1208 5.99195C16.6688 5.99195 17.0723 6.15402 17.4049 6.45491C17.7337 6.75429 17.8672 7.06889 17.8672 7.46408C17.8672 7.85951 17.7337 8.17243 17.4056 8.46949L17.4047 8.47029C17.0719 8.77227 16.6685 8.93464 16.1208 8.93464C15.573 8.93464 15.1696 8.77227 14.8368 8.47029Z" fill="white"  stroke-width="2.34167"></path>
  </symbol>
  <symbol xmlns="http://www.w3.org/2000/svg" viewBox="0 0 35 30" id="dashboard">
    <path d="M1.50488 5.02346C1.50488 4.27157 1.84054 3.55049 2.43801 3.01882C3.03548 2.48716 3.84583 2.18848 4.69078 2.18848H14.2485V27.7033H4.69078C3.84583 27.7033 3.03548 27.4046 2.43801 26.873C1.84054 26.3413 1.50488 25.6202 1.50488 24.8683V5.02346ZM20.6203 2.18848H30.1779C31.0229 2.18848 31.8332 2.48716 32.4307 3.01882C33.0282 3.55049 33.3638 4.27157 33.3638 5.02346V12.1109H20.6203V2.18848ZM20.6203 17.7809H33.3638V24.8683C33.3638 25.6202 33.0282 26.3413 32.4307 26.873C31.8332 27.4046 31.0229 27.7033 30.1779 27.7033H20.6203V17.7809Z" stroke-width="3" stroke-linecap="round" stroke-linejoin="round"></path>
  </symbol>
  <symbol xmlns="http://www.w3.org/2000/svg" viewBox="0 0 215 215" id="check">
    <g clip-path="url(#clip0_1370_985)">
      <path d="M107.5 35.833C67.9939 35.833 35.8335 67.9934 35.8335 107.5C35.8335 147.006 67.9939 179.166 107.5 179.166C147.006 179.166 179.167 147.006 179.167 107.5C179.167 67.9934 147.006 35.833 107.5 35.833ZM89.5835 152.291L53.7502 116.458L66.3814 103.827L89.5835 126.939L148.619 67.9038L161.25 80.6247L89.5835 152.291Z" fill="#DDF0CC"></path>
      <path d="M107.5 17.917C58.0498 17.917 17.9165 58.0503 17.9165 107.5C17.9165 156.95 58.0498 197.084 107.5 197.084C156.95 197.084 197.083 156.95 197.083 107.5C197.083 58.0503 156.95 17.917 107.5 17.917ZM107.5 179.167C67.9936 179.167 35.8332 147.007 35.8332 107.5C35.8332 67.9941 67.9936 35.8337 107.5 35.8337C147.006 35.8337 179.167 67.9941 179.167 107.5C179.167 147.007 147.006 179.167 107.5 179.167ZM148.619 67.9045L89.5832 126.94L66.3811 103.827L53.7498 116.459L89.5832 152.292L161.25 80.6253L148.619 67.9045Z" fill="#4E7A25"></path>
    </g>
    <defs>
      <clipPath id="clip0_1370_985">
        <rect width="215" height="215" fill="white"></rect>
      </clipPath>
    </defs>
  </symbol>
  <symbol fill="none" xmlns="http://www.w3.org/2000/svg" viewBox="0 0 27 22" id="event">
    <path fill-rule="evenodd" clip-rule="evenodd" d="M6.61104 0.324219C6.17293 0.324219 5.75276 0.463819 5.44297 0.71231C5.13317 0.9608 4.95914 1.29783 4.95914 1.64924V2.97427H3.30723C2.431 2.97427 1.59067 3.25347 0.971082 3.75045C0.351497 4.24743 0.00341797 4.92148 0.00341797 5.62432V18.8746C0.00341797 19.5774 0.351497 20.2515 0.971082 20.7484C1.59067 21.2454 2.431 21.5246 3.30723 21.5246H23.1301C24.0063 21.5246 24.8467 21.2454 25.4662 20.7484C26.0858 20.2515 26.4339 19.5774 26.4339 18.8746V5.62432C26.4339 4.92148 26.0858 4.24743 25.4662 3.75045C24.8467 3.25347 24.0063 2.97427 23.1301 2.97427H21.4782V1.64924C21.4782 1.29783 21.3042 0.9608 20.9944 0.71231C20.6846 0.463819 20.2644 0.324219 19.8263 0.324219C19.3882 0.324219 18.968 0.463819 18.6582 0.71231C18.3484 0.9608 18.1744 1.29783 18.1744 1.64924V2.97427H8.26295V1.64924C8.26295 1.29783 8.08891 0.9608 7.77911 0.71231C7.46932 0.463819 7.04915 0.324219 6.61104 0.324219ZM6.61104 6.94935C6.17293 6.94935 5.75276 7.08895 5.44297 7.33744C5.13317 7.58593 4.95914 7.92295 4.95914 8.27437C4.95914 8.62579 5.13317 8.96282 5.44297 9.21131C5.75276 9.4598 6.17293 9.5994 6.61104 9.5994H19.8263C20.2644 9.5994 20.6846 9.4598 20.9944 9.21131C21.3042 8.96282 21.4782 8.62579 21.4782 8.27437C21.4782 7.92295 21.3042 7.58593 20.9944 7.33744C20.6846 7.08895 20.2644 6.94935 19.8263 6.94935H6.61104Z" fill="white"></path>
  </symbol>
  <symbol xmlns="http://www.w3.org/2000/svg" viewBox="0 0 24 25" id="profile">
    <path fill-rule="evenodd" clip-rule="evenodd" d="M11.976 10.0082C13.3368 10.0082 14.6419 9.48166 15.6042 8.54449C16.5665 7.60733 17.1071 6.33626 17.1071 5.01091C17.1071 3.68556 16.5665 2.41449 15.6042 1.47733C14.6419 0.540165 13.3368 0.0136719 11.976 0.0136719C10.6151 0.0136719 9.31001 0.540165 8.34774 1.47733C7.38547 2.41449 6.84488 3.68556 6.84488 5.01091C6.84488 6.33626 7.38547 7.60733 8.34774 8.54449C9.31001 9.48166 10.6151 10.0082 11.976 10.0082ZM0.00341797 24.9999C0.00341795 23.4686 0.313097 21.9524 0.914775 20.5377C1.51645 19.123 2.39834 17.8376 3.5101 16.7548C4.62185 15.6721 5.9417 14.8132 7.39427 14.2272C8.84685 13.6412 10.4037 13.3396 11.976 13.3396C13.5482 13.3396 15.1051 13.6412 16.5577 14.2272C18.0102 14.8132 19.3301 15.6721 20.4418 16.7548C21.5536 17.8376 22.4355 19.123 23.0372 20.5377C23.6388 21.9524 23.9485 23.4686 23.9485 24.9999H0.00341797Z"></path>
  </symbol>
  <symbol  xmlns="http://www.w3.org/2000/svg" viewBox="0 0 19 7" id="transaction">
    <path d="M1.66724 1.89453H17.4918M1.66724 5.68032H8.33022"  stroke-width="2.08218" stroke-linecap="round"></path>
  </symbol>
  <symbol xmlns="http://www.w3.org/2000/svg" viewBox="0 0 25 22" id="level">
    <path fill-rule="evenodd" clip-rule="evenodd" d="M15.6126 4.84039C15.1981 4.84039 14.8006 4.62075 14.5075 4.22978C14.2144 3.83881 14.0498 3.30855 14.0498 2.75564C14.0498 2.20273 14.2144 1.67247 14.5075 1.28151C14.8006 0.890541 15.1981 0.670898 15.6126 0.670898H23.4268C23.8413 0.670898 24.2388 0.890541 24.5319 1.28151C24.825 1.67247 24.9896 2.20273 24.9896 2.75564V13.1794C24.9896 13.7323 24.825 14.2625 24.5319 14.6535C24.2388 15.0445 23.8413 15.2641 23.4268 15.2641C23.0123 15.2641 22.6148 15.0445 22.3217 14.6535C22.0286 14.2625 21.8639 13.7323 21.8639 13.1794V7.78822L15.1547 16.738C14.8616 17.1289 14.4642 17.3484 14.0498 17.3484C13.6353 17.3484 13.2379 17.1289 12.9448 16.738L9.36124 11.9577L2.65198 20.9075C2.35722 21.2873 1.96245 21.4974 1.55268 21.4927C1.1429 21.4879 0.750925 21.2687 0.461163 20.8821C0.1714 20.4956 0.00703785 19.9727 0.00347705 19.4261C-8.37515e-05 18.8795 0.157441 18.3529 0.442125 17.9597L8.25631 7.53596C8.54939 7.14513 8.94683 6.92558 9.36124 6.92558C9.77565 6.92558 10.1731 7.14513 10.4662 7.53596L14.0498 12.3163L19.6541 4.84039H15.6126Z" ></path>
  </symbol>
  <symbol xmlns="http://www.w3.org/2000/svg" viewBox="0 0 18 19" id="message">
    <path d="M0.00341797 3.60836C0.00341797 2.7345 0.337247 1.89644 0.931467 1.27853C1.52569 0.660615 2.33162 0.313477 3.17198 0.313477H14.2619C15.1023 0.313477 15.9082 0.660615 16.5024 1.27853C17.0967 1.89644 17.4305 2.7345 17.4305 3.60836V10.1981C17.4305 11.072 17.0967 11.9101 16.5024 12.528C15.9082 13.1459 15.1023 13.493 14.2619 13.493H11.0934L6.34054 18.4353V13.493H3.17198C2.33162 13.493 1.52569 13.1459 0.931467 12.528C0.337247 11.9101 0.00341797 11.072 0.00341797 10.1981V3.60836Z"></path>
  </symbol>
  <symbol xmlns="http://www.w3.org/2000/svg" viewBox="0 0 28 28" id="moon">
    <path d="M26.8971 14.6958C26.6783 17.0636 25.7896 19.3202 24.3351 21.2015C22.8806 23.0828 20.9203 24.5109 18.6838 25.3187C16.4472 26.1266 14.0269 26.2808 11.7059 25.7633C9.38489 25.2457 7.2593 24.0779 5.57781 22.3964C3.89633 20.7149 2.7285 18.5893 2.21098 16.2684C1.69345 13.9474 1.84764 11.527 2.6555 9.29046C3.46335 7.05391 4.89147 5.09369 6.77273 3.63916C8.65399 2.18464 10.9106 1.29597 13.2785 1.07715C11.8922 2.95269 11.225 5.26351 11.3985 7.58934C11.5719 9.91516 12.5744 12.1015 14.2236 13.7507C15.8728 15.3998 18.0591 16.4023 20.3849 16.5757C22.7107 16.7492 25.0215 16.0821 26.8971 14.6958Z"  stroke-width="2.08218" stroke-linecap="round" stroke-linejoin="round"></path>
  </symbol>
  <symbol xmlns="http://www.w3.org/2000/svg" viewBox="0 0 30 30" id="search">
    <path fill-rule="evenodd" clip-rule="evenodd" d="M10.9731 4.07265C9.03295 4.07265 7.17224 4.841 5.80034 6.20869C4.42843 7.57637 3.6577 9.43135 3.6577 11.3655C3.6577 13.2997 4.42843 15.1547 5.80034 16.5224C7.17224 17.8901 9.03295 18.6584 10.9731 18.6584C12.9133 18.6584 14.774 17.8901 16.1459 16.5224C17.5178 15.1547 18.2885 13.2997 18.2885 11.3655C18.2885 9.43135 17.5178 7.57637 16.1459 6.20869C14.774 4.841 12.9133 4.07265 10.9731 4.07265ZM2.07504e-07 11.3655C-0.000220175 9.64388 0.40718 7.94647 1.18907 6.41137C1.97095 4.87627 3.10525 3.54683 4.4997 2.53116C5.89415 1.51549 7.50938 0.842284 9.21403 0.566286C10.9187 0.290288 12.6646 0.419294 14.3098 0.942813C15.955 1.46633 17.453 2.36958 18.682 3.57909C19.911 4.78861 20.8363 6.27024 21.3827 7.90348C21.929 9.53672 22.0809 11.2755 21.8261 12.9783C21.5713 14.6811 20.9169 16.2999 19.9162 17.7031L28.7258 26.4855C29.0589 26.8294 29.2433 27.2899 29.2391 27.768C29.2349 28.246 29.0426 28.7033 28.7035 29.0414C28.3644 29.3794 27.9057 29.5711 27.4262 29.5753C26.9467 29.5795 26.4847 29.3957 26.1398 29.0636L17.332 20.2829C15.6904 21.4467 13.7591 22.1374 11.7498 22.2796C9.74048 22.4217 7.73069 22.0097 5.94066 21.0887C4.15063 20.1678 2.64943 18.7733 1.60157 17.0583C0.553704 15.3432 -0.000391467 13.3737 2.07504e-07 11.3655Z"></path>
  </symbol>
  <symbol fill="none" xmlns="http://www.w3.org/2000/svg" viewBox="0 0 34 35" id="attach">
    <path d="M33 16.5016L17.8711 30.77C16.0177 32.518 13.504 33.5 10.8829 33.5C8.26178 33.5 5.74803 32.518 3.89463 30.77C2.04123 29.022 1 26.6512 1 24.1792C1 21.7072 2.04123 19.3364 3.89463 17.5884L19.0235 3.32C20.2591 2.15467 21.9349 1.5 23.6823 1.5C25.4297 1.5 27.1056 2.15467 28.3412 3.32C29.5768 4.48532 30.2709 6.06584 30.2709 7.71386C30.2709 9.36188 29.5768 10.9424 28.3412 12.1077L13.1958 26.3761C12.578 26.9588 11.7401 27.2861 10.8664 27.2861C9.99272 27.2861 9.1548 26.9588 8.537 26.3761C7.9192 25.7935 7.57212 25.0032 7.57212 24.1792C7.57212 23.3552 7.9192 22.5649 8.537 21.9823L22.5135 8.81621"  stroke-width="2" stroke-linecap="round" stroke-linejoin="round"></path>
  </symbol>
  <symbol fill="none" xmlns="http://www.w3.org/2000/svg" viewBox="0 0 24 23" id="send">
    <path d="M21.7959 1.7041L11.0204 12.4796"  stroke-width="3" stroke-linecap="round" stroke-linejoin="round"></path>
    <path d="M21.7959 1.7041L14.9388 21.2959L11.0204 12.4796L2.2041 8.56124L21.7959 1.7041Z"  stroke-width="3" stroke-linecap="round" stroke-linejoin="round"></path>
  </symbol>
  <symbol xmlns="http://www.w3.org/2000/svg" viewBox="0 0 20 20" id="clock">
    <path d="M10.1512 5.95618V9.65783L12.9275 12.4341M18.48 9.65783C18.48 10.7516 18.2645 11.8346 17.846 12.8451C17.4274 13.8556 16.8139 14.7737 16.0405 15.5471C15.2672 16.3205 14.349 16.934 13.3385 17.3526C12.328 17.7711 11.245 17.9866 10.1512 17.9866C9.0575 17.9866 7.97446 17.7711 6.96397 17.3526C5.95349 16.934 5.03533 16.3205 4.26194 15.5471C3.48854 14.7737 2.87505 13.8556 2.4565 12.8451C2.03794 11.8346 1.82251 10.7516 1.82251 9.65783C1.82251 7.44892 2.7 5.33047 4.26194 3.76853C5.82388 2.20659 7.94233 1.3291 10.1512 1.3291C12.3602 1.3291 14.4786 2.20659 16.0405 3.76853C17.6025 5.33047 18.48 7.44892 18.48 9.65783Z"  stroke-width="2.08218" stroke-linecap="round" stroke-linejoin="round"></path>
  </symbol>
  <symbol xmlns="http://www.w3.org/2000/svg" viewBox="0 0 18 17" id="date">
    <path fill-rule="evenodd" clip-rule="evenodd" d="M4.98688 0.34375C4.71076 0.34375 4.44596 0.453436 4.25071 0.648679C4.05547 0.843921 3.94578 1.10873 3.94578 1.38484V2.42593H2.90469C2.35246 2.42593 1.82285 2.64531 1.43237 3.03579C1.04188 3.42628 0.82251 3.95589 0.82251 4.50812V14.919C0.82251 15.4713 1.04188 16.0009 1.43237 16.3914C1.82285 16.7818 2.35246 17.0012 2.90469 17.0012H15.3978C15.95 17.0012 16.4796 16.7818 16.8701 16.3914C17.2606 16.0009 17.48 15.4713 17.48 14.919V4.50812C17.48 3.95589 17.2606 3.42628 16.8701 3.03579C16.4796 2.64531 15.95 2.42593 15.3978 2.42593H14.3567V1.38484C14.3567 1.10873 14.247 0.843921 14.0518 0.648679C13.8565 0.453436 13.5917 0.34375 13.3156 0.34375C13.0395 0.34375 12.7747 0.453436 12.5794 0.648679C12.3842 0.843921 12.2745 1.10873 12.2745 1.38484V2.42593H6.02797V1.38484C6.02797 1.10873 5.91828 0.843921 5.72304 0.648679C5.5278 0.453436 5.26299 0.34375 4.98688 0.34375ZM4.98688 5.54921C4.71076 5.54921 4.44596 5.65889 4.25071 5.85414C4.05547 6.04938 3.94578 6.31419 3.94578 6.5903C3.94578 6.86641 4.05547 7.13122 4.25071 7.32646C4.44596 7.52171 4.71076 7.63139 4.98688 7.63139H13.3156C13.5917 7.63139 13.8565 7.52171 14.0518 7.32646C14.247 7.13122 14.3567 6.86641 14.3567 6.5903C14.3567 6.31419 14.247 6.04938 14.0518 5.85414C13.8565 5.65889 13.5917 5.54921 13.3156 5.54921H4.98688Z"></path>
  </symbol>
  
  <symbol xmlns="http://www.w3.org/2000/svg" viewBox="0 0 24 25" strokeWidth="2" fill="none"  id="AccountUserIcon">
    <path d="M20 21.5V19.5C20 18.4391 19.5786 17.4217 18.8284 16.6716C18.0783 15.9214 17.0609 15.5 16 15.5H8C6.93913 15.5 5.92172 15.9214 5.17157 16.6716C4.42143 17.4217 4 18.4391 4 19.5V21.5" stroke="currentColor" strokeWidth="2" strokeLinecap="round" strokeLinejoin="round" />
    <path d="M12 11.5C14.2091 11.5 16 9.70914 16 7.5C16 5.29086 14.2091 3.5 12 3.5C9.79086 3.5 8 5.29086 8 7.5C8 9.70914 9.79086 11.5 12 11.5Z" stroke="currentColor" strokeWidth="2" strokeLinecap="round" strokeLinejoin="round" />
  </symbol>

   <symbol xmlns="http://www.w3.org/2000/svg"  id="AccountDoorIcon" viewBox="0 0 40 41" fill="none" stroke="black" stroke-width="2" stroke-linecap="round" stroke-linejoin="round">
      <rect x="1" y="1.5" width="38" height="38" rx="6"/>
      <path d="M26 23.5H24V25.5H26M26 19.5H24V21.5H26M28 27.5H20V25.5H22V23.5H20V21.5H22V19.5H20V17.5H28M18 15.5H16V13.5H18M18 19.5H16V17.5H18M18 23.5H16V21.5H18M18 27.5H16V25.5H18M14 15.5H12V13.5H14M14 19.5H12V17.5H14M14 23.5H12V21.5H14M14 27.5H12V25.5H14M20 15.5V11.5H10V29.5H30V15.5H20Z" fill="black"/>
    </symbol>

    <symbol xmlns="http://www.w3.org/2000/svg" id="ActivePingIcon" viewBox="0 0 16 16" fill="none" stroke="#FF7A00" stroke-width="2" stroke-linecap="round" stroke-linejoin="round">
      <g>
        <path d="M13.4933 8.1601C14.2439 7.40954 14.6656 6.39156 14.6656 5.3301C14.6656 4.26865 14.2439 3.25067 13.4933 2.50011C12.7428 1.74954 11.7248 1.32788 10.6633 1.32788C9.60189 1.32788 8.58391 1.74954 7.83334 2.50011L3.33334 7.00011V12.6668H9.00001L13.4933 8.1601Z"/>
        <path d="M10.6667 5.33325L1.33334 14.6666"/>
        <path d="M11.6667 10H6"/>
      </g>
    </symbol>

    <symbol xmlns="http://www.w3.org/2000/svg" id="ActivitiesIcon" viewBox="0 0 25 22" fill="none" stroke="currentColor" stroke-width="2" stroke-linecap="round" stroke-linejoin="round">
      <path fill-rule="evenodd" clip-rule="evenodd" d="M15.6126 4.84039C15.1981 4.84039 14.8006 4.62075 14.5075 4.22978C14.2144 3.83881 14.0498 3.30855 14.0498 2.75564C14.0498 2.20273 14.2144 1.67247 14.5075 1.28151C14.8006 0.890541 15.1981 0.670898 15.6126 0.670898H23.4268C23.8413 0.670898 24.2388 0.890541 24.5319 1.28151C24.825 1.67247 24.9896 2.20273 24.9896 2.75564V13.1794C24.9896 13.7323 24.825 14.2625 24.5319 14.6535C24.2388 15.0445 23.8413 15.2641 23.4268 15.2641C23.0123 15.2641 22.6148 15.0445 22.3217 14.6535C22.0286 14.2625 21.8639 13.7323 21.8639 13.1794V7.78822L15.1547 16.738C14.8616 17.1289 14.4642 17.3484 14.0498 17.3484C13.6353 17.3484 13.2379 17.1289 12.9448 16.738L9.36124 11.9577L2.65198 20.9075C2.35722 21.2873 1.96245 21.4974 1.55268 21.4927C1.1429 21.4879 0.750925 21.2687 0.461163 20.8821C0.1714 20.4956 0.00703785 19.9727 0.00347705 19.4261C-8.37515e-05 18.8795 0.157441 18.3529 0.442125 17.9597L8.25631 7.53596C8.54939 7.14513 8.94683 6.92558 9.36124 6.92558C9.77565 6.92558 10.1731 7.14513 10.4662 7.53596L14.0498 12.3163L19.6541 4.84039H15.6126Z" fill="white"/>
    </symbol>

     <symbol xmlns="http://www.w3.org/2000/svg" id="AddstudenIcon" viewBox="0 0 38 38" fill="none" stroke="currentColor" stroke-width="2" stroke-linecap="round" stroke-linejoin="round">
      <path d="M14.9591 15.5886C14.0194 15.2882 13.122 15.0321 12.2668 14.8204C11.9143 13.5965 11.7364 12.3202 11.7394 11.0366C11.7394 5.4365 15.0198 0.896484 19.0665 0.896484C23.1132 0.896484 26.3905 5.43224 26.3905 11.0332C26.3929 12.2565 26.2314 13.4736 25.9113 14.6454C24.8471 14.8901 23.7134 15.2045 22.5103 15.5886C20.7989 16.1366 19.415 16.6794 18.7328 16.9585C18.0544 16.6794 16.6705 16.1366 14.9591 15.5886ZM5.00579 22.8386C4.15709 22.8386 3.32745 23.1148 2.62179 23.6322C1.91613 24.1495 1.36615 24.8849 1.0414 25.7453C0.716651 26.6056 0.631722 27.5523 0.797352 28.4656C0.962982 29.379 1.37173 30.2179 1.97191 30.8763C2.57209 31.5347 3.33673 31.983 4.16914 32.1646C5.00156 32.3462 5.86435 32.2528 6.6484 31.8963C7.43245 31.5399 8.10255 30.9363 8.57395 30.1619C9.04535 29.3875 9.29688 28.4772 9.29673 27.5459C9.29652 26.2974 8.84435 25.1001 8.03967 24.2173C7.23498 23.3346 6.14368 22.8386 5.00579 22.8386ZM32.9941 22.8386C32.1454 22.8386 31.3158 23.1148 30.6102 23.6322C29.9045 24.1495 29.3545 24.8849 29.0298 25.7453C28.705 26.6056 28.6201 27.5523 28.7857 28.4656C28.9513 29.379 29.3601 30.2179 29.9603 30.8763C30.5604 31.5347 31.3251 31.983 32.1575 32.1646C32.9899 32.3462 33.8527 32.2528 34.6368 31.8963C35.4208 31.5399 36.0909 30.9363 36.5623 30.1619C37.0337 29.3875 37.2852 28.4772 37.2851 27.5459C37.2849 26.2976 36.8328 25.1004 36.0283 24.2176C35.2238 23.3349 34.1327 22.8389 32.9949 22.8386H32.9941ZM27.4593 27.5459C27.4605 26.3716 27.7716 25.2228 28.355 24.2383C28.9383 23.2537 29.7691 22.4756 30.7468 21.9979V15.3786C25.73 15.3786 18.7328 18.4207 18.7328 18.4207C18.7328 18.4207 11.7355 15.3786 6.71874 15.3786V21.7734C7.82918 22.1704 8.79668 22.9427 9.48276 23.9797C10.1688 25.0167 10.5383 26.2653 10.5383 27.5468C10.5383 28.8283 10.1688 30.0769 9.48276 31.1139C8.79668 32.1509 7.82918 32.9232 6.71874 33.3202V33.9177C11.7355 33.9177 18.7328 37.4667 18.7328 37.4667C18.7328 37.4667 25.7332 33.9202 30.7468 33.9202V33.094C29.7691 32.6163 28.9383 31.8382 28.355 30.8536C27.7716 29.8691 27.4605 28.7203 27.4593 27.5459Z" fill="black"/>
    </symbol>

    <symbol xmlns="http://www.w3.org/2000/svg" id="AdminIcon" viewBox="0 0 167 167" fill="none" stroke="currentColor" stroke-width="2" stroke-linecap="round" stroke-linejoin="round">
      <g>
        <path d="M68.2326 69.1264C62.0659 69.1264 56.0377 67.2972 50.9109 63.8701C45.7841 60.4431 41.789 55.5724 39.4312 49.8742C37.0734 44.176 36.4589 37.9065 37.6653 31.8589C38.8717 25.8113 41.8449 20.2575 46.2087 15.9002C50.5725 11.5429 56.1307 8.5779 62.18 7.38043C68.2294 6.18295 74.498 6.8068 80.1927 9.17303C85.8874 11.5393 90.7522 15.5415 94.1716 20.6734C97.5911 25.8053 99.4114 31.8361 99.4022 38.0029C99.3779 46.2578 96.0846 54.167 90.2432 59.9999C84.4017 65.8327 76.4876 69.1142 68.2326 69.1264ZM68.2326 16.055C63.8917 16.055 59.6483 17.3422 56.039 19.7539C52.4297 22.1656 49.6166 25.5933 47.9554 29.6038C46.2943 33.6142 45.8596 38.0272 46.7065 42.2847C47.5533 46.5422 49.6437 50.4529 52.7131 53.5223C55.7826 56.5918 59.6933 58.6821 63.9508 59.529C68.2083 60.3759 72.6212 59.9412 76.6317 58.28C80.6421 56.6189 84.0699 53.8057 86.4816 50.1964C88.8932 46.5871 90.1805 42.3437 90.1805 38.0029C90.1805 32.1819 87.8681 26.5994 83.7521 22.4834C79.6361 18.3674 74.0535 16.055 68.2326 16.055Z"/>
        <path d="M76.2557 146.912C75.248 145.904 74.4706 144.69 73.9771 143.352C73.4836 142.015 73.2857 140.587 73.3969 139.166H18.9884V112.515C25.5262 105.539 33.456 100.013 42.2646 96.2961C51.0732 92.5789 60.5642 90.7528 70.1232 90.936H73.443C73.2314 89.3901 73.3792 87.8161 73.8751 86.3367C74.3709 84.8572 75.2013 83.512 76.3018 82.4058L76.8551 81.8986C74.688 81.8986 72.2442 81.622 70.1232 81.622C58.8745 81.3549 47.707 83.5908 37.4281 88.1681C27.1493 92.7453 18.0161 99.5494 10.6888 108.089C10.0902 108.887 9.7666 109.857 9.7666 110.855V139.166C9.7666 141.612 10.7382 143.957 12.4676 145.687C14.197 147.416 16.5426 148.388 18.9884 148.388H77.5467L76.2557 146.912Z"/>
        <path d="M124.436 75.9509C124.664 75.9037 124.899 75.9037 125.127 75.9509C124.899 75.9094 124.664 75.9094 124.436 75.9509Z"/>
        <path d="M155.841 108.365L146.619 105.553C145.96 103.297 145.064 101.118 143.945 99.0512L148.556 90.475C148.706 90.1319 148.742 89.7498 148.659 89.3847C148.576 89.0196 148.378 88.6907 148.095 88.4462L141.409 81.7604C141.156 81.4866 140.819 81.306 140.451 81.2474C140.083 81.1889 139.706 81.2559 139.38 81.4376L130.896 86.0485C128.807 84.8741 126.596 83.931 124.303 83.2359L121.49 74.0141C121.371 73.6746 121.144 73.3832 120.845 73.1836C120.545 72.984 120.189 72.8871 119.83 72.9074H110.378C110.015 72.9033 109.66 73.0182 109.369 73.2348C109.077 73.4513 108.865 73.7574 108.764 74.1063L105.951 83.3281C103.642 84 101.415 84.9279 99.3116 86.0946L90.9197 81.4837C90.6014 81.3055 90.2321 81.2404 89.8721 81.299C89.512 81.3576 89.1824 81.5365 88.9371 81.8065L82.1129 88.4462C81.8599 88.7126 81.6971 89.0519 81.6474 89.4159C81.5978 89.78 81.6638 90.1505 81.8363 90.475L86.4472 98.8668C85.2276 100.945 84.2529 103.158 83.5423 105.46L74.3205 108.227C73.9717 108.328 73.6655 108.54 73.449 108.832C73.2325 109.123 73.1175 109.478 73.1217 109.841V119.293C73.1489 119.626 73.2789 119.942 73.4936 120.199C73.7084 120.455 73.9973 120.638 74.3205 120.722L83.5423 123.535C84.2238 125.797 85.1515 127.977 86.3088 130.036L81.698 138.843C81.522 139.159 81.4538 139.523 81.5038 139.881C81.5537 140.239 81.719 140.571 81.9746 140.826L88.6604 147.512C88.9216 147.772 89.2583 147.944 89.6225 148.002C89.9868 148.06 90.3601 148.001 90.6892 147.834L99.3116 143.224C101.364 144.327 103.528 145.208 105.767 145.852L108.533 155.074C108.647 155.415 108.863 155.713 109.151 155.927C109.44 156.142 109.788 156.262 110.147 156.272H119.599C119.961 156.269 120.312 156.151 120.602 155.936C120.892 155.72 121.106 155.419 121.213 155.074L124.026 145.621C126.236 144.977 128.369 144.096 130.389 142.993L139.104 147.604C139.424 147.774 139.791 147.835 140.149 147.776C140.507 147.718 140.836 147.544 141.086 147.281L148.095 141.01C148.283 140.74 148.384 140.418 148.384 140.088C148.384 139.758 148.283 139.437 148.095 139.166L143.484 130.498C144.603 128.464 145.5 126.315 146.158 124.088L155.38 121.276C155.729 121.175 156.035 120.962 156.252 120.671C156.468 120.379 156.583 120.025 156.579 119.662V109.979C156.621 109.668 156.574 109.351 156.444 109.065C156.313 108.78 156.104 108.537 155.841 108.365ZM115.127 129.944C112.077 129.953 109.093 129.057 106.554 127.368C104.014 125.679 102.033 123.275 100.862 120.459C99.6903 117.643 99.3814 114.542 99.9742 111.551C100.567 108.559 102.035 105.811 104.191 103.654C106.348 101.498 109.096 100.03 112.088 99.4372C115.079 98.8444 118.18 99.1533 120.996 100.325C123.812 101.496 126.216 103.477 127.905 106.017C129.594 108.556 130.49 111.54 130.481 114.59C130.469 118.658 128.847 122.557 125.971 125.434C123.094 128.31 119.195 129.932 115.127 129.944Z"/>
      </g>
    </symbol>

    <symbol xmlns="http://www.w3.org/2000/svg" id="ArrobaseIcon" viewBox="0 0 23 23" fill="none" stroke="currentColor" stroke-width="2" stroke-linecap="round" stroke-linejoin="round">
      <path d="M12.1503 16.7177C14.3727 16.7177 16.1743 14.9268 16.1743 12.7177C16.1743 10.5085 14.3727 8.71765 12.1503 8.71765C9.92785 8.71765 8.12622 10.5085 8.12622 12.7177C8.12622 14.9268 9.92785 16.7177 12.1503 16.7177Z"/>
      <path d="M16.1743 8.71764V13.7176C16.1743 14.5133 16.4923 15.2764 17.0583 15.839C17.6243 16.4016 18.3919 16.7176 19.1924 16.7176C19.9928 16.7176 20.7604 16.4016 21.3264 15.839C21.8924 15.2764 22.2104 14.5133 22.2104 13.7176V12.7176C22.2103 10.4607 21.442 8.27012 20.0306 6.50217C18.6192 4.73423 16.6477 3.49287 14.4366 2.97994C12.2254 2.46701 9.90476 2.71268 7.8519 3.67701C5.79904 4.64133 4.13472 6.2676 3.12957 8.29136C2.12442 10.3151 1.83755 12.6174 2.31561 14.8238C2.79367 17.0301 4.00854 19.0109 5.76269 20.4439C7.51683 21.8769 9.70707 22.678 11.9773 22.7168C14.2475 22.7556 16.4642 22.0299 18.2668 20.6576"/>
    </symbol>

    <symbol xmlns="http://www.w3.org/2000/svg" id="Arrowpointright" viewBox="0 0 24 24" fill="none" stroke="currentColor" stroke-width="2" stroke-linecap="round" stroke-linejoin="round">
      <path d="M19 12H5m14 0-4 4m4-4-4-4"/>
    </symbol>

    <symbol xmlns="http://www.w3.org/2000/svg" id="ArrowRightCircleIcon" viewBox="0 0 32 32" fill="none" stroke="white" stroke-width="2" stroke-linecap="round" stroke-linejoin="round">
      <path d="M15.9998 29.3332C23.3636 29.3332 29.3332 23.3636 29.3332 15.9998C29.3332 8.63604 23.3636 2.6665 15.9998 2.6665C8.63604 2.6665 2.6665 8.63604 2.6665 15.9998C2.6665 23.3636 8.63604 29.3332 15.9998 29.3332Z"/>
      <path d="M16 21.3332L21.3333 15.9998L16 10.6665"/>
      <path d="M10.6665 16H21.3332"/>
    </symbol>

    <symbol xmlns="http://www.w3.org/2000/svg" id="BellIcon" viewBox="0 0 26 26" fill="none" stroke="currentColor" stroke-width="2" stroke-linecap="round" stroke-linejoin="round">
      <path d="M12.8908 0.102539C10.0507 0.102539 7.32688 1.08971 5.31861 2.8469C3.31034 4.60408 2.18211 6.98733 2.18211 9.47236V15.0724L0.920266 16.1765C0.670737 16.3949 0.500814 16.6731 0.431979 16.976C0.363144 17.2789 0.398489 17.5928 0.533543 17.8781C0.668598 18.1634 0.897299 18.4073 1.19073 18.5789C1.48417 18.7505 1.82917 18.8421 2.18211 18.8422H23.5995C23.9524 18.8421 24.2974 18.7505 24.5909 18.5789C24.8843 18.4073 25.113 18.1634 25.2481 17.8781C25.3831 17.5928 25.4185 17.2789 25.3496 16.976C25.2808 16.6731 25.1109 16.3949 24.8613 16.1765L23.5995 15.0724V9.47236C23.5995 6.98733 22.4713 4.60408 20.463 2.8469C18.4547 1.08971 15.7309 0.102539 12.8908 0.102539ZM12.8908 25.0887C11.4707 25.0887 10.1088 24.5952 9.10471 23.7166C8.10057 22.838 7.53646 21.6463 7.53646 20.4038H18.2452C18.2452 21.6463 17.681 22.838 16.6769 23.7166C15.6728 24.5952 14.3109 25.0887 12.8908 25.0887Z" fill="black"/>
    </symbol>

    <symbol xmlns="http://www.w3.org/2000/svg" id="BookmarkIcon" viewBox="0 0 25 25" fill="none" stroke="currentColor" stroke-width="2" stroke-linecap="round" stroke-linejoin="round">
      <path d="M19.5 21.5L12.5 16.5L5.5 21.5V5.5C5.5 4.96957 5.71071 4.46086 6.08579 4.08579C6.46086 3.71071 6.96957 3.5 7.5 3.5H17.5C18.0304 3.5 18.5391 3.71071 18.9142 4.08579C19.2893 4.46086 19.5 4.96957 19.5 5.5V21.5Z" stroke="#142E6E"/>
    </symbol>

    <symbol xmlns="http://www.w3.org/2000/svg" id="BookopenIcon" viewBox="0 0 25 31" fill="none" stroke="currentColor" stroke-width="3" stroke-linecap="round" stroke-linejoin="round">
      <g>
        <path d="M2.35986 3.07959H8.35986C9.42073 3.07959 10.4381 3.65522 11.1883 4.67986C11.9384 5.7045 12.3599 7.0942 12.3599 8.54325V27.6661C12.3599 26.5793 12.0438 25.537 11.4812 24.7685C10.9186 24.0001 10.1555 23.5683 9.35986 23.5683H2.35986V3.07959Z" stroke="white"/>
        <path d="M22.3599 3.07959H16.3599C15.299 3.07959 14.2816 3.65522 13.5314 4.67986C12.7813 5.7045 12.3599 7.0942 12.3599 8.54325V27.6661C12.3599 26.5793 12.6759 25.537 13.2385 24.7685C13.8012 24.0001 14.5642 23.5683 15.3599 23.5683H22.3599V3.07959Z" stroke="white"/>
      </g>
    </symbol>

    <symbol xmlns="http://www.w3.org/2000/svg" id="CalenderIcon" viewBox="0 0 28 25" fill="none" stroke="currentColor" stroke-width="2" stroke-linecap="round" stroke-linejoin="round">
      <path d="M21.6313 4.91211H6.18223C4.96333 4.91211 3.97522 5.80754 3.97522 6.91211V20.9121C3.97522 22.0167 4.96333 22.9121 6.18223 22.9121H21.6313C22.8502 22.9121 23.8383 22.0167 23.8383 20.9121V6.91211C23.8383 5.80754 22.8502 4.91211 21.6313 4.91211Z" stroke="black"/>
      <path d="M18.3208 2.91211V6.91211" stroke="black"/>
      <path d="M9.49274 2.91211V6.91211" stroke="black"/>
      <path d="M3.97522 10.9121H23.8383" stroke="black"/>
    </symbol>

    <symbol xmlns="http://www.w3.org/2000/svg" id="ChekIcon" viewBox="0 0 40 40" fill="none" stroke="currentColor" stroke-width="2" stroke-linecap="round" stroke-linejoin="round">
      <path d="M248.417 125.111V135.499C248.403 159.848 240.518 183.541 225.939 203.044C211.359 222.546 190.866 236.813 167.516 243.717C144.166 250.621 119.209 249.792 96.3686 241.354C73.5279 232.915 54.0269 217.319 40.7739 196.892C27.521 176.465 21.2261 152.302 22.8283 128.005C24.4304 103.708 33.8436 80.5799 49.6641 62.07C65.4845 43.5601 86.8645 30.6601 110.615 25.2939C134.366 19.9276 159.216 22.3828 181.457 32.293"/>
      <path d="M248.416 45.167L135.5 158.197L101.625 124.322"/>
    </symbol>

    <symbol xmlns="http://www.w3.org/2000/svg" id="CommentIcon" viewBox="0 0 25 24" fill="none" stroke="currentColor" stroke-width="3" stroke-linecap="round" stroke-linejoin="round">
      <path d="M21.25 11.4908C21.2534 12.8106 20.9451 14.1126 20.35 15.2908C19.6444 16.7025 18.5598 17.8899 17.2174 18.72C15.8751 19.5501 14.3282 19.9901 12.75 19.9908C11.4301 19.9942 10.1281 19.6858 8.95 19.0908L3.25 20.9908L5.15 15.2908C4.55493 14.1126 4.24656 12.8106 4.25 11.4908C4.25061 9.91251 4.69061 8.3656 5.52072 7.0233C6.35083 5.681 7.53825 4.59632 8.95 3.89075C10.1281 3.29568 11.4301 2.98731 12.75 2.99075H13.25C15.3343 3.10574 17.303 3.98551 18.7791 5.46161C20.2552 6.93771 21.135 8.9064 21.25 10.9908V11.4908Z" stroke="#142E6E"/>
    </symbol>

     <symbol xmlns="http://www.w3.org/2000/svg" id="DeleteUserIcon" viewBox="0 0 25 25" fill="none" stroke="currentColor" stroke-width="1.41406" stroke-linecap="round" stroke-linejoin="round">
      <g>
        <path d="M16.3555 21.5547V19.5547C16.3555 18.4938 15.934 17.4764 15.1839 16.7263C14.4338 15.9761 13.4163 15.5547 12.3555 15.5547H5.35547C4.2946 15.5547 3.27719 15.9761 2.52704 16.7263C1.7769 17.4764 1.35547 18.4938 1.35547 19.5547V21.5547"/>
        <path d="M8.85547 11.5547C11.0646 11.5547 12.8555 9.76383 12.8555 7.55469C12.8555 5.34555 11.0646 3.55469 8.85547 3.55469C6.64633 3.55469 4.85547 5.34555 4.85547 7.55469C4.85547 9.76383 6.64633 11.5547 8.85547 11.5547Z"/>
        <path d="M18.3555 8.55469L23.3555 13.5547"/>
        <path d="M23.3555 8.55469L18.3555 13.5547"/>
      </g>
    </symbol>
    
<symbol fill="none" xmlns="http://www.w3.org/2000/svg" viewBox="0 0 38 38" id="dollars">
  <path d="M10.024 2987.56V2986.6H13.78V2987.56H10.024ZM10.024 2990.92V2989.96H13.66V2990.92H10.024ZM9.46 2986.6H10.48V2995H9.46V2986.6ZM9.4 3004.2C9.4 3004.02 9.464 3003.86 9.592 3003.73C9.728 3003.6 9.884 3003.54 10.06 3003.54C10.244 3003.54 10.4 3003.6 10.528 3003.73C10.656 3003.86 10.72 3004.02 10.72 3004.2C10.72 3004.38 10.656 3004.53 10.528 3004.67C10.4 3004.8 10.244 3004.86 10.06 3004.86C9.884 3004.86 9.728 3004.8 9.592 3004.67C9.464 3004.53 9.4 3004.38 9.4 3004.2ZM9.58 3006.48H10.54V3012H9.58V3006.48ZM10.36 3023.48V3029H9.4V3023.48H10.36ZM12.028 3024.54C11.9 3024.44 11.784 3024.37 11.68 3024.33C11.576 3024.28 11.444 3024.26 11.284 3024.26C11.044 3024.26 10.856 3024.32 10.72 3024.44C10.584 3024.56 10.488 3024.72 10.432 3024.93C10.384 3025.14 10.36 3025.38 10.36 3025.64H9.928C9.928 3025.2 10.004 3024.81 10.156 3024.48C10.316 3024.13 10.52 3023.86 10.768 3023.66C11.016 3023.46 11.268 3023.36 11.524 3023.36C11.724 3023.36 11.908 3023.39 12.076 3023.44C12.252 3023.49 12.412 3023.59 12.556 3023.74L12.028 3024.54ZM9.628 3044.31C9.74 3044.48 9.868 3044.63 10.012 3044.78C10.156 3044.92 10.32 3045.04 10.504 3045.12C10.696 3045.2 10.904 3045.24 11.128 3045.24C11.4 3045.24 11.612 3045.18 11.764 3045.06C11.924 3044.94 12.004 3044.76 12.004 3044.55C12.004 3044.36 11.94 3044.2 11.812 3044.07C11.692 3043.93 11.536 3043.82 11.344 3043.73C11.152 3043.64 10.948 3043.55 10.732 3043.47C10.492 3043.37 10.248 3043.26 10 3043.13C9.76 3043 9.556 3042.82 9.388 3042.62C9.228 3042.4 9.148 3042.13 9.148 3041.81C9.148 3041.48 9.232 3041.21 9.4 3041C9.576 3040.78 9.8 3040.62 10.072 3040.52C10.352 3040.41 10.64 3040.36 10.936 3040.36C11.232 3040.36 11.508 3040.41 11.764 3040.5C12.028 3040.6 12.26 3040.73 12.46 3040.89C12.66 3041.05 12.816 3041.23 12.928 3041.44L12.16 3041.93C12.008 3041.72 11.816 3041.55 11.584 3041.42C11.36 3041.28 11.104 3041.21 10.816 3041.21C10.616 3041.21 10.444 3041.26 10.3 3041.34C10.156 3041.43 10.084 3041.57 10.084 3041.75C10.084 3041.9 10.14 3042.02 10.252 3042.14C10.364 3042.25 10.508 3042.35 10.684 3042.44C10.86 3042.52 11.044 3042.61 11.236 3042.69C11.556 3042.82 11.848 3042.96 12.112 3043.11C12.376 3043.25 12.584 3043.43 12.736 3043.64C12.896 3043.84 12.976 3044.11 12.976 3044.44C12.976 3044.92 12.8 3045.32 12.448 3045.64C12.104 3045.96 11.648 3046.12 11.08 3046.12C10.712 3046.12 10.38 3046.06 10.084 3045.93C9.788 3045.79 9.536 3045.62 9.328 3045.41C9.128 3045.2 8.976 3044.99 8.872 3044.78L9.628 3044.31ZM8.56 3057.48H11.32V3058.38H8.56V3057.48ZM9.46 3055.56H10.42V3063H9.46V3055.56ZM9.46 3071.6H10.48V3080H9.46V3071.6ZM12.94 3093.64C12.94 3093.18 12.84 3092.84 12.64 3092.61C12.44 3092.38 12.148 3092.26 11.764 3092.26C11.484 3092.26 11.236 3092.32 11.02 3092.44C10.812 3092.55 10.648 3092.71 10.528 3092.92C10.416 3093.13 10.36 3093.37 10.36 3093.64V3097H9.4V3091.48H10.36V3092.34C10.544 3092.01 10.772 3091.76 11.044 3091.6C11.324 3091.44 11.644 3091.36 12.004 3091.36C12.588 3091.36 13.048 3091.56 13.384 3091.95C13.728 3092.33 13.9 3092.86 13.9 3093.52V3097H12.94V3093.64ZM9.628 3112.31C9.74 3112.48 9.868 3112.63 10.012 3112.78C10.156 3112.92 10.32 3113.04 10.504 3113.12C10.696 3113.2 10.904 3113.24 11.128 3113.24C11.4 3113.24 11.612 3113.18 11.764 3113.06C11.924 3112.94 12.004 3112.76 12.004 3112.55C12.004 3112.36 11.94 3112.2 11.812 3112.07C11.692 3111.93 11.536 3111.82 11.344 3111.73C11.152 3111.64 10.948 3111.55 10.732 3111.47C10.492 3111.37 10.248 3111.26 10 3111.13C9.76 3111 9.556 3110.82 9.388 3110.62C9.228 3110.4 9.148 3110.13 9.148 3109.81C9.148 3109.48 9.232 3109.21 9.4 3109C9.576 3108.78 9.8 3108.62 10.072 3108.52C10.352 3108.41 10.64 3108.36 10.936 3108.36C11.232 3108.36 11.508 3108.41 11.764 3108.5C12.028 3108.6 12.26 3108.73 12.46 3108.89C12.66 3109.05 12.816 3109.23 12.928 3109.44L12.16 3109.93C12.008 3109.72 11.816 3109.55 11.584 3109.42C11.36 3109.28 11.104 3109.21 10.816 3109.21C10.616 3109.21 10.444 3109.26 10.3 3109.34C10.156 3109.43 10.084 3109.57 10.084 3109.75C10.084 3109.9 10.14 3110.02 10.252 3110.14C10.364 3110.25 10.508 3110.35 10.684 3110.44C10.86 3110.52 11.044 3110.61 11.236 3110.69C11.556 3110.82 11.848 3110.96 12.112 3111.11C12.376 3111.25 12.584 3111.43 12.736 3111.64C12.896 3111.84 12.976 3112.11 12.976 3112.44C12.976 3112.92 12.8 3113.32 12.448 3113.64C12.104 3113.96 11.648 3114.12 11.08 3114.12C10.712 3114.12 10.38 3114.06 10.084 3113.93C9.788 3113.79 9.536 3113.62 9.328 3113.41C9.128 3113.2 8.976 3112.99 8.872 3112.78L9.628 3112.31ZM8.56 3125.48H11.32V3126.38H8.56V3125.48ZM9.46 3123.56H10.42V3131H9.46V3123.56ZM9.832 3146.3C9.832 3146.5 9.88 3146.68 9.976 3146.84C10.08 3146.99 10.22 3147.1 10.396 3147.18C10.58 3147.26 10.788 3147.29 11.02 3147.29C11.316 3147.29 11.58 3147.23 11.812 3147.11C12.052 3146.99 12.24 3146.82 12.376 3146.61C12.52 3146.38 12.592 3146.13 12.592 3145.84L12.784 3146.56C12.784 3146.91 12.676 3147.2 12.46 3147.44C12.252 3147.67 11.992 3147.84 11.68 3147.95C11.376 3148.06 11.072 3148.12 10.768 3148.12C10.432 3148.12 10.116 3148.05 9.82 3147.92C9.532 3147.77 9.3 3147.57 9.124 3147.3C8.948 3147.04 8.86 3146.72 8.86 3146.34C8.86 3145.81 9.048 3145.38 9.424 3145.06C9.808 3144.73 10.34 3144.57 11.02 3144.57C11.42 3144.57 11.752 3144.62 12.016 3144.71C12.288 3144.8 12.504 3144.9 12.664 3145.02C12.824 3145.14 12.932 3145.23 12.988 3145.3V3145.86C12.708 3145.67 12.42 3145.54 12.124 3145.46C11.828 3145.37 11.512 3145.32 11.176 3145.32C10.864 3145.32 10.608 3145.36 10.408 3145.44C10.216 3145.52 10.072 3145.64 9.976 3145.78C9.88 3145.92 9.832 3146.1 9.832 3146.3ZM9.688 3143.75L9.22 3143.04C9.428 3142.89 9.712 3142.74 10.072 3142.59C10.44 3142.44 10.88 3142.36 11.392 3142.36C11.824 3142.36 12.2 3142.43 12.52 3142.56C12.848 3142.69 13.1 3142.88 13.276 3143.13C13.46 3143.38 13.552 3143.68 13.552 3144.04V3148H12.592V3144.17C12.592 3143.98 12.56 3143.82 12.496 3143.7C12.432 3143.58 12.34 3143.48 12.22 3143.4C12.108 3143.33 11.976 3143.28 11.824 3143.25C11.672 3143.22 11.512 3143.2 11.344 3143.2C11.072 3143.2 10.824 3143.23 10.6 3143.3C10.384 3143.36 10.2 3143.44 10.048 3143.52C9.896 3143.61 9.776 3143.69 9.688 3143.75ZM9.4 3155.64H10.36V3165H9.4V3155.64ZM9.4 3172.64H10.36V3182H9.4V3172.64ZM16.96 3195.52V3199H16V3195.64C16 3195.17 15.912 3194.82 15.736 3194.6C15.568 3194.37 15.304 3194.26 14.944 3194.26C14.68 3194.26 14.452 3194.32 14.26 3194.43C14.068 3194.53 13.92 3194.69 13.816 3194.9C13.712 3195.1 13.66 3195.35 13.66 3195.64V3199H12.7V3195.64C12.7 3195.17 12.612 3194.82 12.436 3194.6C12.268 3194.37 12.004 3194.26 11.644 3194.26C11.38 3194.26 11.152 3194.32 10.96 3194.43C10.768 3194.53 10.62 3194.69 10.516 3194.9C10.412 3195.1 10.36 3195.35 10.36 3195.64V3199H9.4V3193.48H10.36V3194.28C10.528 3193.97 10.736 3193.74 10.984 3193.59C11.24 3193.44 11.54 3193.36 11.884 3193.36C12.268 3193.36 12.596 3193.45 12.868 3193.64C13.148 3193.81 13.352 3194.06 13.48 3194.39C13.672 3194.05 13.912 3193.79 14.2 3193.62C14.488 3193.45 14.816 3193.36 15.184 3193.36C15.56 3193.36 15.88 3193.44 16.144 3193.61C16.408 3193.78 16.608 3194.03 16.744 3194.36C16.888 3194.68 16.96 3195.06 16.96 3195.52ZM11.536 3216.12C11.024 3216.12 10.568 3216 10.168 3215.76C9.776 3215.51 9.468 3215.17 9.244 3214.74C9.028 3214.31 8.92 3213.81 8.92 3213.24C8.92 3212.66 9.032 3212.16 9.256 3211.73C9.488 3211.3 9.808 3210.96 10.216 3210.72C10.632 3210.48 11.112 3210.36 11.656 3210.36C12.2 3210.36 12.664 3210.48 13.048 3210.71C13.44 3210.93 13.74 3211.26 13.948 3211.68C14.156 3212.1 14.26 3212.61 14.26 3213.19C14.26 3213.25 14.256 3213.31 14.248 3213.37C14.248 3213.43 14.248 3213.46 14.248 3213.48H9.532V3212.66H13.492L13.108 3213.22C13.132 3213.18 13.156 3213.12 13.18 3213.04C13.204 3212.95 13.216 3212.88 13.216 3212.82C13.216 3212.49 13.148 3212.21 13.012 3211.97C12.884 3211.73 12.704 3211.54 12.472 3211.4C12.24 3211.27 11.968 3211.2 11.656 3211.2C11.288 3211.2 10.972 3211.28 10.708 3211.44C10.452 3211.59 10.252 3211.82 10.108 3212.11C9.972 3212.4 9.9 3212.76 9.892 3213.18C9.892 3213.61 9.96 3213.98 10.096 3214.28C10.232 3214.59 10.432 3214.82 10.696 3214.98C10.96 3215.14 11.28 3215.22 11.656 3215.22C12.032 3215.22 12.364 3215.14 12.652 3214.98C12.94 3214.81 13.184 3214.56 13.384 3214.22L14.164 3214.72C13.876 3215.18 13.512 3215.53 13.072 3215.77C12.64 3216 12.128 3216.12 11.536 3216.12ZM12.94 3229.64C12.94 3229.18 12.84 3228.84 12.64 3228.61C12.44 3228.38 12.148 3228.26 11.764 3228.26C11.484 3228.26 11.236 3228.32 11.02 3228.44C10.812 3228.55 10.648 3228.71 10.528 3228.92C10.416 3229.13 10.36 3229.37 10.36 3229.64V3233H9.4V3227.48H10.36V3228.34C10.544 3228.01 10.772 3227.76 11.044 3227.6C11.324 3227.44 11.644 3227.36 12.004 3227.36C12.588 3227.36 13.048 3227.56 13.384 3227.95C13.728 3228.33 13.9 3228.86 13.9 3229.52V3233H12.94V3229.64ZM8.56 3244.48H11.32V3245.38H8.56V3244.48ZM9.46 3242.56H10.42V3250H9.46V3242.56Z" fill="black"/>
    <rect x="13.75" y="3110.75" width="15.5" height="15.5" rx="2.75" fill="white"  />
    <rect x="13.75" y="3110.75" width="15.5" height="15.5" rx="2.75" stroke="#0A4378" strokeWidth="0.5"/>
    <g clipPath="url(#clip0_547_172)">
      <path d="M5523.13 73C5526.15 73 5528.6 71.1303 5528.6 68.8209C5528.6 66.5145 5528.6 64.6448 5528.6 64.6448C5543.53 63.5355 5553.41 57.1392 5553.41 46.734V46.5638C5553.41 35.9884 5545 31.128 5528.28 27.9736V18.081C5530.69 18.558 5533.18 19.234 5535.62 20.1109C5539.54 21.5203 5544.3 20.6369 5546.68 17.4809C5549.06 14.3268 5547.78 9.89629 5543.36 8.28947C5538.97 6.69134 5534.15 5.59037 5528.81 5.11676V2.55745C5528.81 1.14653 5526.36 0 5523.34 0C5520.32 0 5517.87 1.08919 5517.87 2.42758C5517.87 3.77124 5517.87 4.85857 5517.87 4.85857C5501.78 5.79773 5492.74 12.7907 5492.74 22.8537V23.0257C5492.74 33.5996 5501.36 38.2929 5518.29 41.4455V51.6806C5514.23 51.1496 5510.25 50.0555 5506.21 48.3795C5501.9 46.5957 5496.62 47.2265 5494 50.3586C5491.39 53.4892 5492.44 57.9367 5496.79 59.6663C5503.17 62.2104 5510.39 63.8724 5517.66 64.4762V68.7397C5517.66 71.0916 5520.11 73 5523.13 73ZM5528.18 42.8112C5533.65 44.0891 5535.22 45.3705 5535.22 47.6716V47.8436C5535.22 50.3168 5533.01 51.7649 5528.18 52.1933V42.8112ZM5511.25 21.7444V21.5742C5511.25 19.3574 5513.24 17.6511 5518.4 17.3108V26.5223C5512.72 25.2425 5511.25 23.9612 5511.25 21.7444Z" fill="#010002" />
    </g>
    <defs>
      <clipPath id="clip0_547_172">
        <rect width="90" height="73" fill="white" transform="translate(5478)"/>
      </clipPath>
    </defs>
</symbol>

  <symbol fill="none" xmlns="http://www.w3.org/2000/svg" viewBox="0 0 25 25" id="edite">
    <path d="M12.0156 20.4336H21.0156" strokeWidth="1.41406" strokeLinecap="round" strokeLinejoin="round"></path>
    <path d="M16.5156 3.93382C16.9134 3.536 17.453 3.3125 18.0156 3.3125C18.2942 3.3125 18.57 3.36737 18.8274 3.47398C19.0848 3.58058 19.3186 3.73684 19.5156 3.93382C19.7126 4.1308 19.8689 4.36466 19.9755 4.62203C20.0821 4.8794 20.1369 5.15524 20.1369 5.43382C20.1369 5.7124 20.0821 5.98824 19.9755 6.24561C19.8689 6.50298 19.7126 6.73684 19.5156 6.93382L7.01562 19.4338L3.01562 20.4338L4.01562 16.4338L16.5156 3.93382Z" strokeWidth="1.41406" strokeLinecap="round" strokeLinejoin="round"></path>
  </symbol>

<symbol fill="none" xmlns="http://www.w3.org/2000/svg" viewBox="0 0 171 167" id="eleve">
  <path d="M86.2188 7.25879C31.5952 7.25879 32.0348 53.7772 32.0348 54.5543C32.0348 86.3609 34.5389 131.286 47.632 148.964C52.8266 155.97 62.8563 156.359 62.8563 156.359L85.4596 156.333L108.063 156.359C108.063 156.359 118.106 155.97 123.287 148.964C136.38 131.286 138.884 86.3609 138.884 54.5543C138.871 53.7772 140.842 7.25879 86.2188 7.25879Z" fill="#312D2D"/>
  <path d="M86.2188 7.25879C31.5952 7.25879 32.0348 53.7772 32.0348 54.5543C32.0348 86.3609 34.5389 131.286 47.632 148.964C52.8266 155.97 62.8563 156.359 62.8563 156.359L85.4596 156.333L108.063 156.359C108.063 156.359 118.106 155.97 123.287 148.964C136.38 131.286 138.884 86.3609 138.884 54.5543C138.871 53.7772 140.842 7.25879 86.2188 7.25879Z" fill="url(#paint0_radial_1126_17189)"/>
  <path d="M98.4849 116.445H72.272V141.673C72.272 148.005 77.6131 153.134 84.193 153.134H86.5772C93.1571 153.134 98.4982 147.992 98.4982 141.673V116.445H98.4849Z" fill="#EDC391"/>
  <path d="M85.3929 21.9702C62.4832 21.9702 41.2651 38.534 41.2651 73.6559C41.2651 101.875 59.2332 118.556 74.8704 123.943C78.5999 125.225 82.1962 125.873 85.3929 125.873C88.563 125.873 92.1459 125.238 95.8488 123.969C111.513 118.607 129.521 101.914 129.521 73.6689C129.521 38.534 108.303 21.9702 85.3929 21.9702Z" fill="#F9DDBD"/>
  <path d="M90.468 89.3263C90.3348 89.2745 90.1883 89.2356 90.0418 89.2227H80.7314C80.5849 89.2356 80.4517 89.2745 80.3052 89.3263C79.4661 89.663 78.9999 90.5048 79.3995 91.4113C79.799 92.3178 81.6505 94.8562 85.3799 94.8562C89.1094 94.8562 90.9609 92.3178 91.3604 91.4113C91.7733 90.5177 91.3205 89.663 90.468 89.3263Z" fill="#DBA689"/>
  <path d="M63.7488 83.9648C67.3313 83.9648 70.2355 81.0425 70.2355 77.4377C70.2355 73.8329 67.3313 70.9106 63.7488 70.9106C60.1664 70.9106 57.2622 73.8329 57.2622 77.4377C57.2622 81.0425 60.1664 83.9648 63.7488 83.9648Z" fill="#312D2D"/>
  <path d="M107.037 83.9648C110.62 83.9648 113.524 81.0425 113.524 77.4377C113.524 73.8329 110.62 70.9106 107.037 70.9106C103.455 70.9106 100.551 73.8329 100.551 77.4377C100.551 81.0425 103.455 83.9648 107.037 83.9648Z" fill="#312D2D"/>
  <path d="M73.3791 65.7175C72.1404 64.1245 69.29 61.8193 63.749 61.8193C58.2081 61.8193 55.3444 64.1375 54.119 65.7175C53.5729 66.4168 53.7061 67.2327 54.0923 67.7248C54.4386 68.1781 55.4776 68.6054 56.6231 68.2299C57.7685 67.8543 60.0062 66.7276 63.749 66.7017C67.4918 66.7276 69.7295 67.8543 70.875 68.2299C72.0205 68.6054 73.0594 68.191 73.4057 67.7248C73.792 67.2327 73.9252 66.4168 73.3791 65.7175ZM116.668 65.7175C115.429 64.1245 112.579 61.8193 107.038 61.8193C101.497 61.8193 98.633 64.1375 97.4076 65.7175C96.8615 66.4168 96.9947 67.2327 97.381 67.7248C97.7273 68.1781 98.7662 68.6054 99.9117 68.2299C101.057 67.8543 103.295 66.7276 107.038 66.7017C110.78 66.7276 113.018 67.8543 114.164 68.2299C115.309 68.6054 116.348 68.191 116.694 67.7248C117.081 67.2327 117.214 66.4168 116.668 65.7175Z" fill="#454140"/>
  <path d="M96.4737 99.8036C92.278 102.225 78.5456 102.225 74.3499 99.8036C71.9391 98.4179 69.4883 100.542 70.4872 102.666C71.4729 104.751 78.9718 109.607 85.4451 109.607C91.9184 109.607 99.3241 104.751 100.31 102.666C101.309 100.542 98.8712 98.4049 96.4737 99.8036Z" fill="#444444"/>
  <path d="M152.655 157.64C152.655 138.72 123.685 129.745 98.4179 127.725L86.963 142.009C86.5901 142.475 86.004 142.76 85.3913 142.76C84.7786 142.76 84.1926 142.488 83.8196 142.009L72.3514 127.699C58.2993 128.748 18.1274 133.85 18.1274 157.64V161.539H152.655V157.64Z" fill="#212121"/>
  <path d="M152.655 157.64C152.655 138.72 123.685 129.745 98.4179 127.725L86.963 142.009C86.5901 142.475 86.004 142.76 85.3913 142.76C84.7786 142.76 84.1926 142.488 83.8196 142.009L72.3514 127.699C58.2993 128.748 18.1274 133.85 18.1274 157.64V161.539H152.655V157.64Z" fill="url(#paint1_radial_1126_17189)"/>
  <path d="M86.2188 7.25879C31.5952 7.25879 32.0348 53.7772 32.0348 54.5543C32.0348 64.6039 32.2879 75.9615 33.0337 87.3451L41.9845 87.3192C41.9046 83.5376 44.6351 60.1618 52.7467 58.3876C82.5293 51.8735 99.3786 36.5141 99.3786 36.5141C103.761 45.8126 117.467 54.891 122.381 58.3488C126.417 61.1849 128.056 82.3721 127.976 87.3321H137.846C137.846 87.2674 137.872 87.2026 137.872 87.1249C138.618 75.7932 138.858 64.5132 138.858 54.5284C138.871 53.7772 140.842 7.25879 86.2188 7.25879Z" fill="#312D2D"/>
  <path d="M86.2188 7.25879C31.5952 7.25879 32.0348 53.7772 32.0348 54.5543C32.0348 64.6039 32.2879 75.9615 33.0337 87.3451L41.9845 87.3192C41.9046 83.5376 44.6351 60.1618 52.7467 58.3876C82.5293 51.8735 99.3786 36.5141 99.3786 36.5141C103.761 45.8126 117.467 54.891 122.381 58.3488C126.417 61.1849 128.056 82.3721 127.976 87.3321H137.846C137.846 87.2674 137.872 87.2026 137.872 87.1249C138.618 75.7932 138.858 64.5132 138.858 54.5284C138.871 53.7772 140.842 7.25879 86.2188 7.25879Z" fill="url(#paint2_radial_1126_17189)"/>
  <path d="M155.546 69.978C153.894 69.978 152.549 71.2213 152.549 72.7494V84.664C152.549 86.1921 153.894 87.4354 155.546 87.4354C157.198 87.4354 158.543 86.1921 158.543 84.664V72.7494C158.543 71.2213 157.198 69.978 155.546 69.978ZM149.552 69.978C147.9 69.978 146.555 71.2213 146.555 72.7494V84.664C146.555 86.1921 147.9 87.4354 149.552 87.4354C151.204 87.4354 152.549 86.1921 152.549 84.664V72.7494C152.549 71.2213 151.204 69.978 149.552 69.978Z" fill="#E8AD00"/>
  <path d="M152.549 69.978C150.897 69.978 149.552 71.2213 149.552 72.7494V87.2411C149.552 88.7693 150.897 90.0125 152.549 90.0125C154.2 90.0125 155.546 88.7693 155.546 87.2411V72.7494C155.546 71.2213 154.2 69.978 152.549 69.978Z" fill="#FFCA28"/>
  <path d="M152.549 71.791C154.579 71.791 156.225 70.2661 156.225 68.385C156.225 66.5039 154.579 64.979 152.549 64.979C150.518 64.979 148.873 66.5039 148.873 68.385C148.873 70.2661 150.518 71.791 152.549 71.791Z" fill="#FFCA28"/>
  <path d="M152.549 68.3467C151.816 68.3467 151.217 67.7639 151.217 67.0516V17.8395C151.217 17.1272 151.816 16.5444 152.549 16.5444C153.281 16.5444 153.881 17.1272 153.881 17.8395V67.0516C153.881 67.7639 153.281 68.3467 152.549 68.3467Z" fill="#504F4F"/>
  <path d="M153.881 16.4923C112.817 6.4556 84.6192 6.13184 84.6192 6.13184C84.6192 6.13184 56.4217 6.4556 15.3574 16.4923V17.4895C15.3574 19.2119 16.5162 20.7271 18.2078 21.2063C23.1627 22.6309 34.3112 25.5059 41.0509 26.8139C40.9443 26.9175 39.3327 29.2615 38.3204 31.1523C38.3204 31.1523 50.8275 39.0781 84.6192 42.3934C118.411 39.0781 133.435 31.3854 133.435 31.3854C132.263 29.0414 130.878 27.0599 130.878 27.0599C136.872 26.1016 146.142 22.7863 151.097 21.2581C152.762 20.7401 153.881 19.2508 153.881 17.5542V16.4923Z" fill="url(#paint3_linear_1126_17189)"/>
  <path d="M84.6192 6.13184C84.6192 6.13184 56.4217 6.4556 15.3574 16.4923C15.3574 16.4923 62.522 29.0155 84.6192 28.6399C106.716 29.0155 153.881 16.4923 153.881 16.4923C112.803 6.4556 84.6192 6.13184 84.6192 6.13184Z" fill="url(#paint4_linear_1126_17189)"/>
  <path opacity="0.4" d="M153.881 16.4923C112.817 6.4556 84.6192 6.13184 84.6192 6.13184C84.6192 6.13184 56.4217 6.4556 15.3574 16.4923V17.4895C15.3574 19.2119 16.5162 20.7271 18.2078 21.2063C23.1627 22.6309 34.3112 25.3634 41.0509 26.8398C41.0509 26.8398 39.6257 28.7694 38.3204 31.1523C38.3204 31.1523 50.8275 39.0781 84.6192 42.3934C118.411 39.0781 133.435 31.3854 133.435 31.3854C132.263 29.0414 130.878 27.0599 130.878 27.0599C136.872 26.1016 146.142 22.7863 151.097 21.2581C152.762 20.7401 153.881 19.2508 153.881 17.5542V16.4923Z" fill="url(#paint5_linear_1126_17189)"/>
  <defs>
    <radialGradient id="paint0_radial_1126_17189" cx="0" cy="0" r="1" gradientUnits="userSpaceOnUse" gradientTransform="translate(85.4596 77.9925) scale(62.5527 72.3816)">
      <stop offset="0.794" stopColor="#454140" stopOpacity="0"/>
      <stop offset="1" stopColor="#454140"/>
    </radialGradient>
    <radialGradient id="paint1_radial_1126_17189" cx="0" cy="0" r="1" gradientUnits="userSpaceOnUse" gradientTransform="translate(85.3913 159.73) scale(72.1482 36.8073)">
      <stop offset="0.598" stopColor="#212121"/>
      <stop offset="1" stopColor="#616161"/>
    </radialGradient>
    <radialGradient id="paint2_radial_1126_17189" cx="0" cy="0" r="1" gradientUnits="userSpaceOnUse" gradientTransform="translate(85.9031 82.0214) scale(66.2929 78.2177)">
      <stop offset="0.794" stopColor="#454140" stopOpacity="0"/>
      <stop offset="1" stopColor="#454140"/>
    </radialGradient>
    <linearGradient id="paint3_linear_1126_17189" x1="84.6139" y1="0.520355" x2="84.6139" y2="37.6108" gradientUnits="userSpaceOnUse">
      <stop offset="0.003" stopColor="#424242"/>
      <stop offset="0.472" stopColor="#353535"/>
      <stop offset="1" stopColor="#212121"/>
    </linearGradient>
    <linearGradient id="paint4_linear_1126_17189" x1="84.6139" y1="0.735336" x2="84.6139" y2="40.8821" gradientUnits="userSpaceOnUse">
      <stop offset="0.003" stopColor="#616161"/>
      <stop offset="0.324" stopColor="#505050"/>
      <stop offset="0.955" stopColor="#242424"/>
      <stop offset="1" stopColor="#212121"/>
    </linearGradient>
    <linearGradient id="paint5_linear_1126_17189" x1="17.8735" y1="24.2613" x2="152.172" y2="24.2613" gradientUnits="userSpaceOnUse">
      <stop offset="0.001" stopColor="#BFBEBE"/>
      <stop offset="0.3" stopColor="#212121" stopOpacity="0"/>
      <stop offset="0.7" stopColor="#212121" stopOpacity="0"/>
      <stop offset="1" stopColor="#BFBEBE"/>
    </linearGradient>
  </defs>
</symbol>

<symbol fill="none" xmlns="http://www.w3.org/2000/svg" viewBox="0 0 27 22" id="even">
  <path fillRule="evenodd" clipRule="evenodd" d="M6.60762 0C6.16951 0 5.74934 0.1396 5.43955 0.388091C5.12976 0.636581 4.95572 0.973607 4.95572 1.32503V2.65005H3.30381C2.42759 2.65005 1.58725 2.92925 0.967664 3.42623C0.348079 3.92321 0 4.59727 0 5.3001V18.5504C0 19.2532 0.348079 19.9272 0.967664 20.4242C1.58725 20.9212 2.42759 21.2004 3.30381 21.2004H23.1267C24.0029 21.2004 24.8432 20.9212 25.4628 20.4242C26.0824 19.9272 26.4305 19.2532 26.4305 18.5504V5.3001C26.4305 4.59727 26.0824 3.92321 25.4628 3.42623C24.8432 2.92925 24.0029 2.65005 23.1267 2.65005H21.4748V1.32503C21.4748 0.973607 21.3007 0.636581 20.9909 0.388091C20.6811 0.1396 20.261 0 19.8229 0C19.3848 0 18.9646 0.1396 18.6548 0.388091C18.345 0.636581 18.171 0.973607 18.171 1.32503V2.65005H8.25953V1.32503C8.25953 0.973607 8.08549 0.636581 7.7757 0.388091C7.4659 0.1396 7.04574 0 6.60762 0ZM6.60762 6.62513C6.16951 6.62513 5.74934 6.76473 5.43955 7.01322C5.12976 7.26171 4.95572 7.59874 4.95572 7.95015C4.95572 8.30157 5.12976 8.6386 5.43955 8.88709C5.74934 9.13558 6.16951 9.27518 6.60762 9.27518H19.8229C20.261 9.27518 20.6811 9.13558 20.9909 8.88709C21.3007 8.6386 21.4748 8.30157 21.4748 7.95015C21.4748 7.59874 21.3007 7.26171 20.9909 7.01322C20.6811 6.76473 20.261 6.62513 19.8229 6.62513H6.60762Z" fill="white"/>
</symbol>

<symbol fill="none" xmlns="http://www.w3.org/2000/svg" viewBox="0 0 25 25" id="eyeopen">
  <g clipPath="url(#clip0_1126_17471)">
    <path d="M1.67578 12.4336C1.67578 12.4336 5.67578 4.43359 12.6758 4.43359C19.6758 4.43359 23.6758 12.4336 23.6758 12.4336C23.6758 12.4336 19.6758 20.4336 12.6758 20.4336C5.67578 20.4336 1.67578 12.4336 1.67578 12.4336Z" strokeWidth="1.41406" strokeLinecap="round" strokeLinejoin="round"/>
    <path d="M12.6758 15.4336C14.3326 15.4336 15.6758 14.0904 15.6758 12.4336C15.6758 10.7767 14.3326 9.43359 12.6758 9.43359C11.0189 9.43359 9.67578 10.7767 9.67578 12.4336C9.67578 14.0904 11.0189 15.4336 12.6758 15.4336Z" strokeWidth="1.41406" strokeLinecap="round" strokeLinejoin="round"/>
  </g>
  <defs>
    <clipPath id="clip0_1126_17471">
      <rect width="24" height="24" fill="white" transform="translate(0.675781 0.433594)"/>
    </clipPath>
  </defs>
</symbol>

<symbol fill="none" xmlns="http://www.w3.org/2000/svg" viewBox="0 0 25 25" id="file">
  <path d="M14.457 2.93359H6.45703C5.9266 2.93359 5.41789 3.14431 5.04282 3.51938C4.66774 3.89445 4.45703 4.40316 4.45703 4.93359V20.9336C4.45703 21.464 4.66774 21.9727 5.04282 22.3478C5.41789 22.7229 5.9266 22.9336 6.45703 22.9336H18.457C18.9875 22.9336 19.4962 22.7229 19.8712 22.3478C20.2463 21.9727 20.457 21.464 20.457 20.9336V8.93359L14.457 2.93359Z" strokeWidth="2" strokeLinecap="round" strokeLinejoin="round"/>
  <path d="M14.457 2.93359V8.93359H20.457" strokeWidth="2" strokeLinecap="round" strokeLinejoin="round"/>
  <path d="M16.457 13.9336H8.45703" strokeWidth="2" strokeLinecap="round" strokeLinejoin="round"/>
  <path d="M16.457 17.9336H8.45703" strokeWidth="2" strokeLinecap="round" strokeLinejoin="round"/>
  <path d="M10.457 9.93359H9.45703H8.45703" strokeWidth="2" strokeLinecap="round" strokeLinejoin="round"/>
</symbol>

<symbol fill="none" xmlns="http://www.w3.org/2000/svg" viewBox="0 0 18 17" id="folder">
  <path fillRule="evenodd" clipRule="evenodd" d="M4.98688 0.34375C4.71076 0.34375 4.44596 0.453436 4.25071 0.648679C4.05547 0.843921 3.94578 1.10873 3.94578 1.38484V2.42593H2.90469C2.35246 2.42593 1.82285 2.64531 1.43237 3.03579C1.04188 3.42628 0.82251 3.95589 0.82251 4.50812V14.919C0.82251 15.4713 1.04188 16.0009 1.43237 16.3914C1.82285 16.7818 2.35246 17.0012 2.90469 17.0012H15.3978C15.95 17.0012 16.4796 16.7818 16.8701 16.3914C17.2606 16.0009 17.48 15.4713 17.48 14.919V4.50812C17.48 3.95589 17.2606 3.42628 16.8701 3.03579C16.4796 2.64531 15.95 2.42593 15.3978 2.42593H14.3567V1.38484C14.3567 1.10873 14.247 0.843921 14.0518 0.648679C13.8565 0.453436 13.5917 0.34375 13.3156 0.34375C13.0395 0.34375 12.7747 0.453436 12.5794 0.648679C12.3842 0.843921 12.2745 1.10873 12.2745 1.38484V2.42593H6.02797V1.38484C6.02797 1.10873 5.91828 0.843921 5.72304 0.648679C5.5278 0.453436 5.26299 0.34375 4.98688 0.34375ZM4.98688 5.54921C4.71076 5.54921 4.44596 5.65889 4.25071 5.85414C4.05547 6.04938 3.94578 6.31419 3.94578 6.5903C3.94578 6.86641 4.05547 7.13122 4.25071 7.32646C4.44596 7.52171 4.71076 7.63139 4.98688 7.63139H13.3156C13.5917 7.63139 13.8565 7.52171 14.0518 7.32646C14.247 7.13122 14.3567 6.86641 14.3567 6.5903C14.3567 6.31419 14.247 6.04938 14.0518 5.85414C13.8565 5.65889 13.5917 5.54921 13.3156 5.54921H4.98688Z" fill="#FC7717"/>
</symbol>

<symbol fill="none" xmlns="http://www.w3.org/2000/svg" viewBox="0 0 38 37" id="grommet">
  <g clipPath="url(#clip0_1523_2170)">
    <path d="M17.4756 23.2182C22.0468 23.2182 29.6656 29.3133 29.6656 29.3133V4.93311C29.6656 4.93311 22.0468 11.0281 17.4756 11.0281M17.4756 23.2182V11.0281M17.4756 23.2182H9.85676C6.49077 23.2182 3.76172 21.8636 3.76172 17.1232C3.76172 12.3828 6.49077 11.0281 9.85676 11.0281H17.4756M8.333 23.2182L12.9043 35.4083H18.9993L14.428 23.2182M29.6656 21.6945C30.266 21.6945 30.8604 21.5762 31.415 21.3465C31.9696 21.1168 32.4735 20.7801 32.898 20.3556C33.3225 19.9311 33.6592 19.4272 33.889 18.8725C34.1187 18.3179 34.2369 17.7235 34.2369 17.1232C34.2369 16.5229 34.1187 15.9284 33.889 15.3738C33.6592 14.8192 33.3225 14.3153 32.898 13.8908C32.4735 13.4663 31.9696 13.1296 31.415 12.8999C30.8604 12.6701 30.266 12.5519 29.6656 12.5519M17.4756 29.3133C18.9993 29.3133 22.0468 27.7895 22.0468 24.742" stroke="black" strokeWidth="1.46281"/>
  </g>
  <defs>
    <clipPath id="clip0_1523_2170">
      <rect width="36.5702" height="36.5702" fill="white" transform="translate(0.713867 0.361816)"/>
    </clipPath>
  </defs>
</symbol>

<symbol fill="none" xmlns="http://www.w3.org/2000/svg" viewBox="0 0 34 35" id="join">
  <path d="M33 16.5016L17.8711 30.77C16.0177 32.518 13.504 33.5 10.8829 33.5C8.26178 33.5 5.74803 32.518 3.89463 30.77C2.04123 29.022 1 26.6512 1 24.1792C1 21.7072 2.04123 19.3364 3.89463 17.5884L19.0235 3.32C20.2591 2.15467 21.9349 1.5 23.6823 1.5C25.4297 1.5 27.1056 2.15467 28.3412 3.32C29.5768 4.48532 30.2709 6.06584 30.2709 7.71386C30.2709 9.36188 29.5768 10.9424 28.3412 12.1077L13.1958 26.3761C12.578 26.9588 11.7401 27.2861 10.8664 27.2861C9.99272 27.2861 9.1548 26.9588 8.537 26.3761C7.9192 25.7935 7.57212 25.0032 7.57212 24.1792C7.57212 23.3552 7.9192 22.5649 8.537 21.9823L22.5135 8.81621" stroke="#2662F0" strokeWidth="2" strokeLinecap="round" strokeLinejoin="round"/>
</symbol>

<symbol fill="none" xmlns="http://www.w3.org/2000/svg" viewBox="0 0 25 25" id="layer">
  <path d="M12.5 2.5L2.5 7.5L12.5 12.5L22.5 7.5L12.5 2.5Z" stroke="#0A4378" strokeWidth="2" strokeLinecap="round" strokeLinejoin="round"/>
  <path d="M2.5 17.5L12.5 22.5L22.5 17.5" stroke="#0A4378" strokeWidth="2" strokeLinecap="round" strokeLinejoin="round"/>
  <path d="M2.5 12.5L12.5 17.5L22.5 12.5" stroke="#0A4378" strokeWidth="2" strokeLinecap="round" strokeLinejoin="round"/>
</symbol>

<symbol fill="none" xmlns="http://www.w3.org/2000/svg" viewBox="0 0 8 15" id="left_chevron">
  <path d="M7 1.87793L1 7.87793L7 13.8779" stroke="#5F0F40" strokeWidth="2" strokeLinecap="round" strokeLinejoin="round"/>
</symbol>


<symbol fill="none" xmlns="http://www.w3.org/2000/svg" viewBox="0 0 10 11" id="online">
  <path d="M5 9.5C7.20914 9.5 9 7.70914 9 5.5C9 3.29086 7.20914 1.5 5 1.5C2.79086 1.5 1 3.29086 1 5.5C1 7.70914 2.79086 9.5 5 9.5Z" fill="#146301" stroke="#146301" strokeWidth="2"/>
</symbol>

<symbol fill="none" xmlns="http://www.w3.org/2000/svg" viewBox="0 0 24 25" id="option">
  <path d="M12 13.5C12.5523 13.5 13 13.0523 13 12.5C13 11.9477 12.5523 11.5 12 11.5C11.4477 11.5 11 11.9477 11 12.5C11 13.0523 11.4477 13.5 12 13.5Z" stroke="#414D55" strokeWidth="2"/>
  <path d="M19 13.5C19.5523 13.5 20 13.0523 20 12.5C20 11.9477 19.5523 11.5 19 11.5C18.4477 11.5 18 11.9477 18 12.5C18 13.0523 18.4477 13.5 19 13.5Z" stroke="#414D55" strokeWidth="2"/>
  <path d="M5 13.5C5.55228 13.5 6 13.0523 6 12.5C6 11.9477 5.55228 11.5 5 11.5C4.44772 11.5 4 11.9477 4 12.5C4 13.0523 4.44772 13.5 5 13.5Z" stroke="#414D55" strokeWidth="2"/>
</symbol>

<symbol fill="none" xmlns="http://www.w3.org/2000/svg" viewBox="0 0 93 162" id="parent">
  <path d="M74.3742 97.6605L59.3553 80.7642C51.6923 72.1429 47.4592 61.0094 47.4586 49.4748V43.8225H37.2643C34.8464 43.8225 32.4521 44.299 30.2184 45.2247C27.9847 46.1504 25.9554 47.5072 24.2463 49.2175C22.5372 50.9279 21.1818 52.9583 20.2578 55.1926C19.3337 57.427 18.859 59.8216 18.8607 62.2395C18.8597 72.2465 16.411 82.1014 11.7281 90.945L3.7207 106.072V107.754L47.4586 114.483C47.4586 114.483 47.4586 144.763 60.9164 157.48M57.5519 53.9226H89.5142V68.1677C89.5142 75.6569 86.419 82.6012 81.2579 87.5671M20.543 161.585C20.543 150.731 22.0839 139.225 27.2719 130.094M38.0381 30.3714C38.0381 30.3714 27.2719 23.6425 27.2719 15.2314C27.2719 12.1119 28.5111 9.12011 30.7169 6.91429C32.9227 4.70846 35.9145 3.46924 39.034 3.46924C42.1535 3.46924 45.1453 4.70846 47.3511 6.91429C49.5569 9.12011 50.7961 12.1119 50.7961 15.2314C50.7961 23.6425 40.0568 30.3714 40.0568 30.3714H38.0381ZM73.5196 40.9156C73.5196 40.9156 64.2808 35.0278 64.2808 27.6664C64.2808 21.9805 68.8027 17.3712 74.3877 17.3712C79.9727 17.3712 84.4676 21.9805 84.4676 27.6664C84.4676 35.0278 75.249 40.9223 75.249 40.9223L73.5196 40.9156Z" stroke="#DE0D92" strokeWidth="6.72891"/>
</symbol>

<symbol fill="none" xmlns="http://www.w3.org/2000/svg" viewBox="0 0 36 33" id="performance">
  <path d="M9.25 27.641V14.3076" stroke="currentColor" strokeWidth="2"/>
  <path d="M18 27.6409V6.30762" stroke="currentColor" strokeWidth="2"/>
  <path d="M26.75 27.6416V19.6416" stroke="currentColor" strokeWidth="2"/>
</symbol>

</svg>